<?xml version="1.0" encoding="utf-8"?>
<!-- Generator: Adobe Illustrator 22.0.1, SVG Export Plug-In . SVG Version: 6.00 Build 0)  -->
<svg version="1.1" id="Layer_1" xmlns="http://www.w3.org/2000/svg" xmlns:xlink="http://www.w3.org/1999/xlink" x="0px" y="0px"
	 viewBox="0 0 333.9 300" style="enable-background:new 0 0 333.9 300;" xml:space="preserve">
<style type="text/css">
	.st0{fill:#B6B7C4;}
	.st1{fill:#D2D2D8;}
	.st2{fill:url(#SVGID_1_);}
	.st3{fill:url(#SVGID_2_);}
	.st4{fill:url(#SVGID_3_);}
	.st5{fill:#85858D;}
	.st6{fill:#F7F0E7;}
	.st7{fill:#2A2D33;}
	.st8{fill:#0C1422;}
	.st9{fill:#F58A41;}
	.st10{fill:#FFFFFF;}
	.st11{fill:#D63150;}
	.st12{fill:url(#SVGID_4_);}
	.st13{fill:url(#SVGID_5_);}
	.st14{fill:url(#SVGID_6_);}
	.st15{fill:url(#SVGID_7_);}
	.st16{fill:#F6DABC;}
	.st17{fill:url(#SVGID_8_);}
	.st18{fill:url(#SVGID_9_);}
	.st19{fill:url(#SVGID_10_);}
	.st20{fill:url(#SVGID_11_);}
	.st21{fill:url(#SVGID_12_);}
	.st22{fill:url(#SVGID_13_);}
	.st23{fill:url(#SVGID_14_);}
	.st24{fill:url(#SVGID_15_);}
	.st25{fill:url(#SVGID_16_);}
	.st26{fill:url(#SVGID_17_);}
	.st27{fill:url(#SVGID_18_);}
	.st28{fill:url(#SVGID_19_);}
	.st29{fill:url(#SVGID_20_);}
	.st30{fill:url(#SVGID_21_);}
	.st31{fill:url(#SVGID_22_);}
	.st32{fill:url(#SVGID_23_);}
	.st33{fill:url(#SVGID_24_);}
	.st34{fill:url(#SVGID_25_);}
	.st35{fill:#F7D8A9;}
	.st36{fill:#231F20;}
	.st37{fill:#100D0F;}
	.st38{fill:url(#SVGID_26_);}
	.st39{fill:url(#SVGID_27_);}
	.st40{fill:url(#SVGID_28_);}
	.st41{fill:url(#SVGID_29_);}
	.st42{fill:url(#SVGID_30_);}
	.st43{fill:url(#SVGID_31_);}
	.st44{fill:url(#SVGID_32_);}
	.st45{fill:url(#SVGID_33_);}
	.st46{fill:url(#SVGID_34_);}
	.st47{fill:url(#SVGID_35_);}
	.st48{fill:url(#SVGID_36_);}
	.st49{fill:#2E2F30;}
	.st50{fill:#151618;}
	.st51{fill:url(#SVGID_37_);}
	.st52{fill:#32313F;}
	.st53{fill:url(#SVGID_38_);}
</style>
<g>
	<g>
		<g>
			<path class="st0" d="M289.7,107.8h-95.9l-0.4-62.5C192.1,20.6,211.8,0,236.4,0h10.7c24.6,0,44.3,20.6,43,45.3L289.7,107.8z"/>
		</g>
		<g>
			<path class="st1" d="M190.4,135.9h15.2c8.7,0,14.5-9.1,10.7-17l-13.4-27.7h-12L177.2,110C169.3,120.8,177,135.9,190.4,135.9z"/>
			<path class="st1" d="M292.8,135.9l-11.7,0.1c-8.3,0.1-14.1-8.1-11.3-15.9l10.4-29h12L306,110
				C313.9,120.8,306.2,135.9,292.8,135.9z"/>
		</g>
		<g>
			<linearGradient id="SVGID_1_" gradientUnits="userSpaceOnUse" x1="244.6067" y1="75.2704" x2="258.2551" y2="-80.6091">
				<stop  offset="0.1836" style="stop-color:#F6D9BB"/>
				<stop  offset="0.6741" style="stop-color:#E9AB8F"/>
			</linearGradient>
			<path class="st2" d="M242.1,147.7L242.1,147.7c-25,0-45.3-20.3-45.3-45.3l4.4-38.6l1.1-11.1c1.4-13.6,12.9-24.2,26.8-24.2h25.9
				c13.9,0,25.4,10.6,26.8,24.2l1.1,11.1l4.4,38.6C287.4,127.5,267.1,147.7,242.1,147.7z"/>
			<linearGradient id="SVGID_2_" gradientUnits="userSpaceOnUse" x1="201.8181" y1="86.7699" x2="172.5908" y2="83.8067">
				<stop  offset="0.1836" style="stop-color:#F6D9BB"/>
				<stop  offset="0.6741" style="stop-color:#E9AB8F"/>
			</linearGradient>
			<path class="st3" d="M199.6,95.3h-2.8c-3.9,0-7.1-3.2-7.1-7.1v-3.1c0-4.2,3.4-7.6,7.6-7.6h2.4V95.3z"/>
			<linearGradient id="SVGID_3_" gradientUnits="userSpaceOnUse" x1="278.9839" y1="87.0337" x2="316.6966" y2="83.2624">
				<stop  offset="0.1836" style="stop-color:#F6D9BB"/>
				<stop  offset="0.6741" style="stop-color:#E9AB8F"/>
			</linearGradient>
			<path class="st4" d="M283.9,95.3h2.8c3.9,0,7.1-3.2,7.1-7.1v-3.1c0-4.2-3.4-7.6-7.6-7.6h-2.4V95.3z"/>
		</g>
		<path class="st0" d="M252.9,34.8h-22.3c-6.9,0-12.6-5.6-12.6-12.6v0h47.4v0C265.5,29.1,259.8,34.8,252.9,34.8z"/>
		<g>
			<path class="st5" d="M233,69.6c-8.6-2.7-13.6-1.6-20,3.3c-0.6,0.4-1.4,0.3-1.8-0.4c-0.4-0.5-0.5-0.8-0.9-1.3
				c-0.5-0.7-0.4-1.6,0.3-2c7.7-5.1,13.3-6.1,22.8-2.6c0.8,0.3,1.4,1,1.3,1.6c-0.1,0.4-0.1,0.6-0.2,1
				C234.5,69.6,233.8,69.8,233,69.6z"/>
		</g>
		<circle class="st6" cx="287.6" cy="96.1" r="3.3"/>
		<circle class="st6" cx="196" cy="96.1" r="3.3"/>
		<g>
			<path class="st7" d="M258.2,122.6c0-0.2,0.1-0.4,0.1-0.6C258.2,122.2,258.2,122.4,258.2,122.6z"/>
			<path class="st7" d="M258.3,121.8c0-0.2,0.1-0.3,0.1-0.5C258.4,121.5,258.3,121.6,258.3,121.8z"/>
		</g>
		<g>
			<path class="st5" d="M249.5,69c8.6-2.7,13.6-1.6,20,3.3c0.6,0.4,1.4,0.3,1.8-0.4c0.4-0.5,0.5-0.8,0.9-1.3c0.5-0.7,0.4-1.6-0.3-2
				c-7.7-5.1-13.3-6.1-22.8-2.6c-0.8,0.3-1.4,1-1.3,1.6c0.1,0.4,0.1,0.6,0.2,1C248,69.1,248.7,69.3,249.5,69z"/>
		</g>
		<circle class="st8" cx="225.2" cy="78.9" r="5.2"/>
		<circle class="st8" cx="258.1" cy="78.3" r="5.2"/>
		<path class="st9" d="M242.8,103.3L242.8,103.3c-3.4,0.1-6.1-1.5-5.7-3.4l1.8-10.6l7-0.2l2.5,10.5
			C248.8,101.4,246.2,103.2,242.8,103.3z"/>
		<path class="st7" d="M226.8,120.3c0.7,2.6,2.1,4.9,4,6.7h24c1.9-1.8,3.3-4.1,4-6.7H226.8z"/>
		<g>
			<path class="st10" d="M230.9,127.1c2.6,2.5,6.2,4,10.1,4h3.9c3.9,0,7.5-1.5,10.1-4H230.9z"/>
			<path class="st10" d="M230.9,127.1c-1.2-1.1-2.2-2.5-2.9-3.9C228.7,124.6,229.7,125.9,230.9,127.1z"/>
			<path class="st10" d="M254.9,127.1c1.2-1.1,2.2-2.5,2.9-3.9C257.1,124.6,256.1,125.9,254.9,127.1z"/>
			<path class="st10" d="M226.3,116.4L226.3,116.4c0,2.4,0.6,4.7,1.6,6.7c-0.5-0.9-0.8-1.8-1.1-2.8h32.1c-0.3,1-0.6,1.9-1.1,2.8
				c1-2,1.6-4.3,1.6-6.7v0H226.3z"/>
		</g>
		<path class="st11" d="M242.7,122.2c-4,0-7.5,1.9-9.9,4.9h19.8C250.2,124.1,246.7,122.2,242.7,122.2z"/>
		<g>
			
				<linearGradient id="SVGID_4_" gradientUnits="userSpaceOnUse" x1="329.2384" y1="-15.929" x2="331.9889" y2="-22.0645" gradientTransform="matrix(0.9554 -0.2021 0.2839 0.8303 -7.0837 352.5247)">
				<stop  offset="0.1836" style="stop-color:#F6D9BB"/>
				<stop  offset="0.6741" style="stop-color:#E9AB8F"/>
			</linearGradient>
			<path class="st12" d="M297.6,268.3l14.6,2.3l-0.9,5.5l-14.6-2.3c-1.5-0.2-2.5-1.7-2.3-3.2v0C294.6,269,296,268,297.6,268.3z"/>
			
				<linearGradient id="SVGID_5_" gradientUnits="userSpaceOnUse" x1="336.3987" y1="-13.7121" x2="325.8631" y2="-18.6203" gradientTransform="matrix(0.9554 -0.2021 0.2839 0.8303 -7.0837 352.5247)">
				<stop  offset="0" style="stop-color:#F6D9BB"/>
				<stop  offset="1" style="stop-color:#F6DABC;stop-opacity:0"/>
			</linearGradient>
			<path class="st13" d="M297.6,268.3l14.6,2.3l-0.9,5.5l-14.6-2.3c-1.5-0.2-2.5-1.7-2.3-3.2v0C294.6,269,296,268,297.6,268.3z"/>
		</g>
		<linearGradient id="SVGID_6_" gradientUnits="userSpaceOnUse" x1="239.2794" y1="284.2843" x2="239.2794" y2="165.1009">
			<stop  offset="0" style="stop-color:#2A3560"/>
			<stop  offset="0.6741" style="stop-color:#374768"/>
		</linearGradient>
		<path class="st14" d="M177.6,175.1l-22.1,47l27.2,12.8l3.6-8.2v68.8h115.1v-73.5l21.6-8.1l-15-39.9c-3.9-10.5-14-17.5-25.2-17.5
			l-76,0.1C194.3,156.5,182.9,163.7,177.6,175.1z"/>
		<linearGradient id="SVGID_7_" gradientUnits="userSpaceOnUse" x1="242.7094" y1="159.1309" x2="242.5748" y2="131.3851">
			<stop  offset="0.1836" style="stop-color:#F6D9BB"/>
			<stop  offset="0.6741" style="stop-color:#E9AB8F"/>
		</linearGradient>
		<path class="st15" d="M242.1,147.7L242.1,147.7c-5.1,0-10.1-0.9-14.7-2.4v24.6h30.5v-25C253,146.7,247.7,147.7,242.1,147.7z"/>
		<path class="st16" d="M242.7,190.2L242.7,190.2c-8.4,0-16.1-4.8-19.8-12.4l-6.3-13c-1.7-3.6,0.9-7.8,4.8-7.8H264
			c4,0,6.6,4.2,4.8,7.8l-6.3,13C258.8,185.4,251.1,190.2,242.7,190.2z"/>
		<g>
			
				<linearGradient id="SVGID_8_" gradientUnits="userSpaceOnUse" x1="554.9568" y1="-360.8181" x2="554.9568" y2="-372.3401" gradientTransform="matrix(0.8097 -0.5869 0.5869 0.8097 74.5164 910.529)">
				<stop  offset="0.1836" style="stop-color:#F6D9BB"/>
				<stop  offset="0.6741" style="stop-color:#E9AB8F"/>
			</linearGradient>
			<path class="st17" d="M321.3,288.7l-15.2,7.8c-1.2,0.9-2.9,0.6-3.7-0.6l-0.1-0.1c-0.9-1.2-0.6-2.9,0.6-3.7l15.2-7.8L321.3,288.7z
				"/>
			
				<linearGradient id="SVGID_9_" gradientUnits="userSpaceOnUse" x1="553.9423" y1="-367.2892" x2="553.9423" y2="-375.4078" gradientTransform="matrix(0.8097 -0.5869 0.5869 0.8097 74.5164 910.529)">
				<stop  offset="0.1836" style="stop-color:#F6D9BB"/>
				<stop  offset="0.6741" style="stop-color:#E9AB8F"/>
			</linearGradient>
			<path class="st18" d="M318.2,284.5l-16.7,8.9c-1.3,1-3.1,0.7-4.1-0.7l0-0.1c-1-1.3-0.7-3.1,0.7-4.1l16.7-8.9L318.2,284.5z"/>
			
				<linearGradient id="SVGID_10_" gradientUnits="userSpaceOnUse" x1="553.9423" y1="-371.3416" x2="553.9423" y2="-383.4691" gradientTransform="matrix(0.8097 -0.5869 0.5869 0.8097 74.5164 910.529)">
				<stop  offset="0.1836" style="stop-color:#F6D9BB"/>
				<stop  offset="0.6741" style="stop-color:#E9AB8F"/>
			</linearGradient>
			<path class="st19" d="M314.8,279.8l-16.7,8.9c-1.3,0.9-3.1,0.7-4-0.6l0,0c-0.9-1.3-0.7-3.1,0.6-4l16.7-8.9L314.8,279.8z"/>
			
				<linearGradient id="SVGID_11_" gradientUnits="userSpaceOnUse" x1="553.9423" y1="-377.5198" x2="553.9423" y2="-388.2502" gradientTransform="matrix(0.8097 -0.5869 0.5869 0.8097 74.5164 910.529)">
				<stop  offset="0.1836" style="stop-color:#F6D9BB"/>
				<stop  offset="0.6741" style="stop-color:#E9AB8F"/>
			</linearGradient>
			<path class="st20" d="M311.5,275.2l-16.7,8.9c-1.3,0.9-3.1,0.7-4-0.6l0,0c-0.9-1.3-0.7-3.1,0.6-4l16.7-8.9L311.5,275.2z"/>
			
				<linearGradient id="SVGID_12_" gradientUnits="userSpaceOnUse" x1="565.0294" y1="-379.4848" x2="551.8009" y2="-379.4848" gradientTransform="matrix(0.8097 -0.5869 0.5869 0.8097 74.5164 910.529)">
				<stop  offset="0" style="stop-color:#F6D9BB"/>
				<stop  offset="1" style="stop-color:#F6DABC;stop-opacity:0"/>
			</linearGradient>
			<path class="st21" d="M311.5,275.2l-16.7,8.9c-1.3,0.9-3.1,0.7-4-0.6l0,0c-0.9-1.3-0.7-3.1,0.6-4l16.7-8.9L311.5,275.2z"/>
			
				<linearGradient id="SVGID_13_" gradientUnits="userSpaceOnUse" x1="561.1309" y1="-362.6183" x2="553.9352" y2="-362.6183" gradientTransform="matrix(0.8097 -0.5869 0.5869 0.8097 74.5164 910.529)">
				<stop  offset="0" style="stop-color:#F6D9BB"/>
				<stop  offset="1" style="stop-color:#F6DABC;stop-opacity:0"/>
			</linearGradient>
			<path class="st22" d="M321.3,288.7l-15.2,7.8c-1.2,0.9-2.9,0.6-3.7-0.6l-0.1-0.1c-0.9-1.2-0.6-2.9,0.6-3.7l15.2-7.8L321.3,288.7z
				"/>
			
				<linearGradient id="SVGID_14_" gradientUnits="userSpaceOnUse" x1="564.7183" y1="-368.1187" x2="552.1517" y2="-368.1187" gradientTransform="matrix(0.8097 -0.5869 0.5869 0.8097 74.5164 910.529)">
				<stop  offset="0" style="stop-color:#F6D9BB"/>
				<stop  offset="1" style="stop-color:#F6DABC;stop-opacity:0"/>
			</linearGradient>
			<path class="st23" d="M318.2,284.5l-16.7,8.9c-1.3,1-3.1,0.7-4.1-0.7l0-0.1c-1-1.3-0.7-3.1,0.7-4.1l16.7-8.9L318.2,284.5z"/>
			
				<linearGradient id="SVGID_15_" gradientUnits="userSpaceOnUse" x1="564.9905" y1="-373.8531" x2="551.752" y2="-373.8531" gradientTransform="matrix(0.8097 -0.5869 0.5869 0.8097 74.5164 910.529)">
				<stop  offset="0" style="stop-color:#F6D9BB"/>
				<stop  offset="1" style="stop-color:#F6DABC;stop-opacity:0"/>
			</linearGradient>
			<path class="st24" d="M314.8,279.8l-16.7,8.9c-1.3,0.9-3.1,0.7-4-0.6l0,0c-0.9-1.3-0.7-3.1,0.6-4l16.7-8.9L314.8,279.8z"/>
		</g>
		<g>
			<linearGradient id="SVGID_16_" gradientUnits="userSpaceOnUse" x1="178.7413" y1="258.8861" x2="128.0984" y2="246.4948">
				<stop  offset="0.1836" style="stop-color:#F6D9BB"/>
				<stop  offset="0.6741" style="stop-color:#E9AB8F"/>
			</linearGradient>
			<path class="st25" d="M193.9,281.9l-10.4-34.3c-1.3-4.1-1.5-8.5-0.8-12.7v0L155.5,222l-2.9,8.7c-0.8,2.3-1.2,4.6-1.2,7l0,0
				c0,3.6,0.9,7.2,2.6,10.4l22.2,41.3L193.9,281.9z"/>
			<linearGradient id="SVGID_17_" gradientUnits="userSpaceOnUse" x1="184.4079" y1="296.0188" x2="190.8729" y2="284.9743">
				<stop  offset="0.1836" style="stop-color:#F6D9BB"/>
				<stop  offset="0.6741" style="stop-color:#E9AB8F"/>
			</linearGradient>
			<path class="st26" d="M191.3,299.6l-15.1-10.2l2.8-4.1l15.1,10.2c1.1,0.8,1.4,2.3,0.7,3.4l0,0C194,300,192.4,300.3,191.3,299.6z"
				/>
			<linearGradient id="SVGID_18_" gradientUnits="userSpaceOnUse" x1="187.7258" y1="290.7394" x2="192.2379" y2="284.409">
				<stop  offset="0.1836" style="stop-color:#F6D9BB"/>
				<stop  offset="0.6741" style="stop-color:#E9AB8F"/>
			</linearGradient>
			<path class="st27" d="M193.7,296.1l-15.1-10.2l2.8-4.1l15.1,10.2c1.1,0.8,1.4,2.3,0.7,3.4l0,0
				C196.3,296.6,194.8,296.9,193.7,296.1z"/>
			<linearGradient id="SVGID_19_" gradientUnits="userSpaceOnUse" x1="190.3283" y1="286.851" x2="194.0323" y2="281.7328">
				<stop  offset="0.1836" style="stop-color:#F6D9BB"/>
				<stop  offset="0.6741" style="stop-color:#E9AB8F"/>
			</linearGradient>
			<path class="st28" d="M196.3,292.2L181.2,282l2.8-4.1l15.1,10.2c1.1,0.8,1.4,2.3,0.7,3.4l0,0C198.9,292.7,197.4,293,196.3,292.2z
				"/>
			
				<linearGradient id="SVGID_20_" gradientUnits="userSpaceOnUse" x1="219.0792" y1="142.391" x2="220.5608" y2="135.3872" gradientTransform="matrix(0.9919 -0.1273 0.1273 0.9919 -42.1973 164.6315)">
				<stop  offset="0.1836" style="stop-color:#F6D9BB"/>
				<stop  offset="0.6741" style="stop-color:#E9AB8F"/>
			</linearGradient>
			<path class="st29" d="M197.9,279.2h-11.5v-4.9h11.5c1.4,0,2.5,1.1,2.5,2.5v0C200.4,278.1,199.3,279.2,197.9,279.2z"/>
			<linearGradient id="SVGID_21_" gradientUnits="userSpaceOnUse" x1="192.9063" y1="283.1871" x2="196.6776" y2="277.1261">
				<stop  offset="0.1836" style="stop-color:#F6D9BB"/>
				<stop  offset="0.6741" style="stop-color:#E9AB8F"/>
			</linearGradient>
			<path class="st30" d="M198.8,288.6l-15.1-10.2l2.8-4.1l15.1,10.2c1.1,0.8,1.4,2.3,0.7,3.4l0,0C201.4,289,199.9,289.3,198.8,288.6
				z"/>
		</g>
		<linearGradient id="SVGID_22_" gradientUnits="userSpaceOnUse" x1="313.3633" y1="252.7328" x2="358.6186" y2="217.175">
			<stop  offset="0.1836" style="stop-color:#F6D9BB"/>
			<stop  offset="0.6741" style="stop-color:#E9AB8F"/>
		</linearGradient>
		<path class="st31" d="M328,226.7l-5-13l-26.5,10l7.9,15.3c0.9,1.8,1.6,3.6,2.2,5.5l4.4,14.6c1,3.4,0.9,6.9-0.3,10.2l-1.9,5.2
			l12.6,14.1l8.1-10.4c3.1-4,4.7-9.1,4.5-14.2l-0.6-12C332.9,243.4,331.1,234.8,328,226.7z"/>
	</g>
	<g>
		<path class="st8" d="M132.7,220.1l-49.2-24.8c-18.8-9.5-38.1-17.9-57.9-24.7c-9.4-3.2-16.6-11.6-17.7-22.2l-7.5-68
			c-3-26.8,16.3-50.9,43.1-53.8l41.2-4.6c23.4-2.6,44.4,14.2,47,37.6l14.3,144.1C146.7,211.9,140.8,219.2,132.7,220.1z"/>
		<linearGradient id="SVGID_23_" gradientUnits="userSpaceOnUse" x1="14.4117" y1="229.9463" x2="159.1784" y2="229.9463">
			<stop  offset="0" style="stop-color:#F58A43"/>
			<stop  offset="1" style="stop-color:#F2755F"/>
		</linearGradient>
		<path class="st32" d="M142,177.3l17.2,37.8L136,225.6v69.8H28.6v-79.9l-14.2-4.3l9.4-31.2c2.8-9.2,11.3-15.6,21-15.6H122
			C130.6,164.5,138.5,169.5,142,177.3z"/>
		
			<linearGradient id="SVGID_24_" gradientUnits="userSpaceOnUse" x1="64.4556" y1="-24.2256" x2="80.1698" y2="-75.9304" gradientTransform="matrix(0.9939 -0.1103 0.1103 0.9939 8.692 132.8221)">
			<stop  offset="0.1836" style="stop-color:#F7D8A9"/>
			<stop  offset="0.6741" style="stop-color:#DBB89F"/>
		</linearGradient>
		<path class="st33" d="M111,89.9l-2.2-0.2l-2.6-15.9c-3-18.7-20.6-31.4-39.3-28.3l-12.6,2c-18.7,3-31.4,20.6-28.3,39.3l2.6,15.9
			l-2.1,1c-4.4,2-6.4,7.2-4.4,11.6l0.4,0.8c1.6,3.5,5.4,5.2,9,4.2l2.1,12.7c3,18.7,20.6,31.4,39.3,28.3l12.6-2
			c18.7-3,31.4-20.6,28.3-39.3l-2.1-12.7c3.7-0.2,6.7-3,7.1-6.8l0.1-0.9C119.3,94.7,115.8,90.4,111,89.9z"/>
		<linearGradient id="SVGID_25_" gradientUnits="userSpaceOnUse" x1="80.5365" y1="141.6209" x2="80.5365" y2="185.8611">
			<stop  offset="0" style="stop-color:#F58A43"/>
			<stop  offset="1" style="stop-color:#F2755F"/>
		</linearGradient>
		<path class="st34" d="M88.1,195.7H72.9c-12.1,0-22-9.8-22-22v0c0-5.1,4.1-9.3,9.3-9.3h40.6c5.1,0,9.3,4.1,9.3,9.3v0
			C110.1,185.9,100.3,195.7,88.1,195.7z"/>
		<path class="st35" d="M97.8,164.5h-1l3.4-33.8l-34.4-3.5L62,164.6c-3.7,0.6-6.5,3.8-6.5,7.7v0c0,10.3,8.3,18.6,18.6,18.6H87
			c10.3,0,18.6-8.3,18.6-18.6v0C105.6,168,102.1,164.5,97.8,164.5z"/>
		<path class="st36" d="M57.1,90.5l-17.1,5.3c-1.4,0.4-2.8-0.3-3.2-1.7v0c-0.4-1.4,0.3-2.8,1.7-3.2l17.1-5.3
			c1.4-0.4,2.8,0.3,3.2,1.7v0C59.3,88.6,58.5,90.1,57.1,90.5z"/>
		<path class="st36" d="M95.8,86.9L77,87c-1.2,0-2.1-0.9-2.1-2.1l0,0c0-1.2,0.9-2.1,2.1-2.1l18.8-0.2c1.2,0,2.1,0.9,2.1,2.1l0,0
			C97.9,85.9,97,86.9,95.8,86.9z"/>
		<circle class="st8" cx="52.2" cy="102.9" r="5.3"/>
		<circle class="st8" cx="88" cy="96.9" r="5.3"/>
		<path class="st9" d="M73.5,122.6L73.5,122.6c-3.4,0.6-6.3-0.7-6.2-2.7l0.4-11l7-1.1l3.9,10.3C79.3,119.9,76.9,122,73.5,122.6z"/>
		<path class="st10" d="M79.7,152.7l-0.6,0.1c-8.4,1.4-16.2-4.3-17.6-12.7l0,0c-0.2-1.1,0.6-2.2,1.7-2.4l26.7-4.3
			c1.1-0.2,2.2,0.6,2.4,1.7v0C93.7,143.5,88,151.4,79.7,152.7z"/>
		<path class="st7" d="M62.4,143.6c2.7,6.4,9.5,10.4,16.6,9.2l0.6-0.1c7.2-1.2,12.3-7.1,12.8-14L62.4,143.6z"/>
		<path class="st11" d="M77.9,143.9c-4.5,0.7-8.3,3.1-10.2,6.2c3.2,2.3,7.2,3.4,11.4,2.7l0.6-0.1c4.2-0.7,7.7-3,9.9-6.1
			C86.7,144.3,82.5,143.2,77.9,143.9z"/>
		<path class="st37" d="M126.5,45.9c-6-20.9-25.5-35.8-47.5-32.2l-39.1,6.4c0,0-0.1,0-0.1,0c-7.8,1.3-12.2,9.7-9,16.9
			c7.2,15.9,22.4,27.6,41,29.5l8.4,0.9C99.6,69.4,116.5,61.3,126.5,45.9z"/>
		<path class="st35" d="M14.4,211.2L3.9,244.9c-2.1,6.8,2.7,13.7,9.7,14.2l0,0c9.4-2.8,16.9-9.9,20.4-19.1l7.7-20.5L14.4,211.2z"/>
		<g>
			<path class="st35" d="M170.5,240.1l-17.6-38.7l-26.2,11.9l2.6,5.7l-29-16.8L86,227.1l51.6,29.8c7.7,4.4,17,4.9,25,1.2l1.4-0.6
				C170.6,254.5,173.5,246.7,170.5,240.1z"/>
			<linearGradient id="SVGID_26_" gradientUnits="userSpaceOnUse" x1="135.2684" y1="241.6459" x2="174.4599" y2="217.8021">
				<stop  offset="0.1836" style="stop-color:#F7D8A9"/>
				<stop  offset="0.6741" style="stop-color:#DBB99F"/>
			</linearGradient>
			<path class="st38" d="M164.8,257.1L164.8,257.1c-8.3,3.8-18,0.1-21.8-8.2l-16.2-35.7l26.2-11.9l17.9,39.5
				C173.7,247,170.9,254.3,164.8,257.1z"/>
			<g>
				<g>
					
						<linearGradient id="SVGID_27_" gradientUnits="userSpaceOnUse" x1="-206.28" y1="34.7597" x2="-207.8002" y2="19.9922" gradientTransform="matrix(0.7811 -0.127 0.1605 0.987 238.5448 153.4786)">
						<stop  offset="0.1836" style="stop-color:#F7D8A9"/>
						<stop  offset="0.6741" style="stop-color:#D9A98E"/>
					</linearGradient>
					<path class="st39" d="M101.6,209.8l-34.8,5.6c-2.1,0.3-4.1-1.1-4.5-3.2h0c-0.3-2.1,1.1-4.1,3.2-4.5l34.8-5.6L101.6,209.8z"/>
					
						<linearGradient id="SVGID_28_" gradientUnits="userSpaceOnUse" x1="-1164.2799" y1="41.8247" x2="-1165.7858" y2="27.1962" gradientTransform="matrix(0.4604 -7.485983e-02 0.1605 0.987 621.1401 91.2754)">
						<stop  offset="0.1836" style="stop-color:#F7D8A9"/>
						<stop  offset="0.6741" style="stop-color:#D9A98E"/>
					</linearGradient>
					<path class="st40" d="M102.7,216.8L82.9,220c-1.6,0.3-3.2-0.8-3.4-2.5l-0.3-1.7c-0.3-1.6,0.8-3.2,2.5-3.4l19.8-3.2L102.7,216.8
						z"/>
					
						<linearGradient id="SVGID_29_" gradientUnits="userSpaceOnUse" x1="-1164.3159" y1="48.359" x2="-1165.8218" y2="33.7306" gradientTransform="matrix(0.4604 -7.485983e-02 0.1605 0.987 621.1401 91.2754)">
						<stop  offset="0.1836" style="stop-color:#F7D8A9"/>
						<stop  offset="0.6741" style="stop-color:#D9A98E"/>
					</linearGradient>
					<path class="st41" d="M103.7,223.3l-19.8,3.2c-1.6,0.3-3.2-0.8-3.4-2.5l-0.3-1.7c-0.3-1.6,0.8-3.2,2.5-3.4l19.8-3.2
						L103.7,223.3z"/>
					
						<linearGradient id="SVGID_30_" gradientUnits="userSpaceOnUse" x1="-1201.3916" y1="54.9282" x2="-1202.897" y2="40.304" gradientTransform="matrix(0.4533 -7.369111e-02 0.1605 0.987 629.8095 89.8659)">
						<stop  offset="0.1836" style="stop-color:#F7D8A9"/>
						<stop  offset="0.6741" style="stop-color:#D9A98E"/>
					</linearGradient>
					<path class="st42" d="M104.8,229.7l-19.5,3.2c-1.6,0.3-3.1-0.8-3.4-2.5l-0.3-1.8c-0.3-1.6,0.8-3.1,2.5-3.4l19.5-3.2
						L104.8,229.7z"/>
					
						<linearGradient id="SVGID_31_" gradientUnits="userSpaceOnUse" x1="-1850.7505" y1="-4.661" x2="-1852.2567" y2="-19.2931" gradientTransform="matrix(0.3618 -5.881546e-02 0.1229 0.7562 766.9552 130.3107)">
						<stop  offset="0.1836" style="stop-color:#F7D8A9"/>
						<stop  offset="0.6741" style="stop-color:#D9A98E"/>
					</linearGradient>
					<path class="st43" d="M105.4,233.4l-15.6,2.5c-1.3,0.2-2.5-0.7-2.7-1.9l-0.2-1.3c-0.2-1.3,0.7-2.5,1.9-2.7l15.6-2.5
						L105.4,233.4z"/>
				</g>
				<g>
					<linearGradient id="SVGID_32_" gradientUnits="userSpaceOnUse" x1="102.1106" y1="203.3884" x2="91.8331" y2="206.4032">
						<stop  offset="0.1836" style="stop-color:#F7D8A9"/>
						<stop  offset="0.6741" style="stop-color:#F7D8A9;stop-opacity:0"/>
					</linearGradient>
					<path class="st44" d="M101.6,209.8l-34.8,5.6c-2.1,0.3-4.1-1.1-4.5-3.2h0c-0.3-2.1,1.1-4.1,3.2-4.5l34.8-5.6L101.6,209.8z"/>
					<linearGradient id="SVGID_33_" gradientUnits="userSpaceOnUse" x1="103.4625" y1="212.7504" x2="92.4998" y2="214.5318">
						<stop  offset="0.1836" style="stop-color:#F7D8A9"/>
						<stop  offset="0.6741" style="stop-color:#F7D8A9;stop-opacity:0"/>
					</linearGradient>
					<path class="st45" d="M102.7,216.8L82.9,220c-1.6,0.3-3.2-0.8-3.4-2.5l-0.3-1.7c-0.3-1.6,0.8-3.2,2.5-3.4l19.8-3.2L102.7,216.8
						z"/>
					<linearGradient id="SVGID_34_" gradientUnits="userSpaceOnUse" x1="103.5395" y1="218.9996" x2="94.4953" y2="220.7811">
						<stop  offset="0.1836" style="stop-color:#F7D8A9"/>
						<stop  offset="0.6741" style="stop-color:#F7D8A9;stop-opacity:0"/>
					</linearGradient>
					<path class="st46" d="M103.7,223.3l-19.8,3.2c-1.6,0.3-3.2-0.8-3.4-2.5l-0.3-1.7c-0.3-1.6,0.8-3.2,2.5-3.4l19.8-3.2
						L103.7,223.3z"/>
					<linearGradient id="SVGID_35_" gradientUnits="userSpaceOnUse" x1="108.5098" y1="224.8532" x2="93.1621" y2="227.7309">
						<stop  offset="0.1836" style="stop-color:#F7D8A9"/>
						<stop  offset="0.6741" style="stop-color:#F7D8A9;stop-opacity:0"/>
					</linearGradient>
					<path class="st47" d="M104.8,229.7l-19.5,3.2c-1.6,0.3-3.1-0.8-3.4-2.5l-0.3-1.8c-0.3-1.6,0.8-3.1,2.5-3.4l19.5-3.2
						L104.8,229.7z"/>
					<linearGradient id="SVGID_36_" gradientUnits="userSpaceOnUse" x1="106.1848" y1="229.8332" x2="95.6333" y2="232.0258">
						<stop  offset="0.1836" style="stop-color:#F7D8A9"/>
						<stop  offset="0.6741" style="stop-color:#F7D8A9;stop-opacity:0"/>
					</linearGradient>
					<path class="st48" d="M105.4,233.4l-15.6,2.5c-1.3,0.2-2.5-0.7-2.7-1.9l-0.2-1.3c-0.2-1.3,0.7-2.5,1.9-2.7l15.6-2.5
						L105.4,233.4z"/>
				</g>
			</g>
		</g>
		<g>
			<path class="st49" d="M70.5,258.1l-20.9,5.2c-5.6,1.4-11.2-2-12.6-7.5l-13.1-52.1c-1.4-5.6,2-11.2,7.5-12.6l20.9-5.2
				c5.6-1.4,11.2,2,12.6,7.5L78,245.5C79.4,251,76,256.7,70.5,258.1z"/>
			<path class="st50" d="M68.2,258.6l-19,4.8c-5.3,1.3-10.6-1.9-12-7.2l-12.8-50.9c-1.3-5.3,1.9-10.6,7.2-12l19-4.8
				c5.3-1.3,10.6,1.9,12,7.2l12.8,50.9C76.6,251.9,73.4,257.3,68.2,258.6z"/>
			
				<rect x="25.6" y="207.1" transform="matrix(0.9698 -0.2439 0.2439 0.9698 -49.3245 17.3134)" class="st49" width="39.4" height="1.6"/>
			
				<rect x="36.8" y="251.7" transform="matrix(0.9698 -0.2439 0.2439 0.9698 -59.8763 21.4006)" class="st49" width="39.4" height="1.6"/>
		</g>
		<linearGradient id="SVGID_37_" gradientUnits="userSpaceOnUse" x1="21.4535" y1="237.2352" x2="56.1685" y2="227.5516">
			<stop  offset="0.1836" style="stop-color:#F7D8A9"/>
			<stop  offset="0.6741" style="stop-color:#D9A98E"/>
		</linearGradient>
		<path class="st51" d="M44.3,223.5l-7.6,2l0-5.6c0-2.3-1.9-4.2-4.2-4.2l0,0c-2.3,0-4.2,1.9-4.2,4.2l0,7.8l-8.6,2.2l1.7,6.4
			l-1.9,0.5l1.7,6.4l-1.3,0.3l1.7,6.4l-1.9,0.5l1.4,5.2l25.6-6.7c1.4-0.4,2.3-1.8,1.9-3.3c-0.2-0.7-0.6-1.2-1.1-1.5
			c1.4-0.9,2.1-2.6,1.7-4.2l0,0c-0.3-1.1-1.1-2-2-2.5c1.4-0.9,2.1-2.6,1.7-4.2l0,0c-0.3-1.1-1-1.9-1.9-2.4c1.7-0.8,2.6-2.6,2.1-4.5
			l0,0C48.5,224.2,46.4,222.9,44.3,223.5z"/>
		<g>
			<path class="st52" d="M78.2,50.6L72,53.5c7.7,5.8,17.3,9.2,27.7,9.2c2.4,0,4.8-0.2,7.2-0.6C95.9,61.7,85.9,57.4,78.2,50.6z"/>
			<path class="st52" d="M72.1,44.2c-6-7.7-9.6-17.3-9.7-27.8l-9,1.5c0.4,11.3,4.8,21.6,11.9,29.5L72.1,44.2z"/>
		</g>
		<linearGradient id="SVGID_38_" gradientUnits="userSpaceOnUse" x1="78.9488" y1="170.3524" x2="77.0303" y2="151.7159">
			<stop  offset="0.1836" style="stop-color:#F7D8A9"/>
			<stop  offset="0.6741" style="stop-color:#D9A98E"/>
		</linearGradient>
		<path class="st53" d="M97.1,166.4l0.7-11.9c-3.7,2.3-7.9,3.9-12.4,4.6l-12.6,2c-3.5,0.6-7,0.6-10.4,0.1l-0.3,3.3
			c-1.5,0.2-2.8,0.9-3.9,1.9c2.3,4.7,9.6,7.1,14.6,6.3l12.6-2C89.6,170,93.6,168.5,97.1,166.4z"/>
	</g>
</g>
</svg>
