<?xml version="1.0" encoding="utf-8"?>
<!-- Generator: Adobe Illustrator 22.0.1, SVG Export Plug-In . SVG Version: 6.00 Build 0)  -->
<svg version="1.1" id="Layer_1" xmlns="http://www.w3.org/2000/svg" xmlns:xlink="http://www.w3.org/1999/xlink" x="0px" y="0px"
	 viewBox="0 0 500 188.5" style="enable-background:new 0 0 500 188.5;" xml:space="preserve">
<style type="text/css">
	.st0{fill:url(#SVGID_1_);}
	.st1{fill:url(#SVGID_2_);}
	.st2{fill:url(#SVGID_3_);}
	.st3{fill:url(#SVGID_4_);}
	.st4{fill:url(#SVGID_5_);}
	.st5{fill:url(#SVGID_6_);}
	.st6{fill:url(#SVGID_7_);}
	.st7{fill:#141517;}
</style>
<g>
	<g>
		<linearGradient id="SVGID_1_" gradientUnits="userSpaceOnUse" x1="-7.079" y1="59.3051" x2="506.7057" y2="59.3051">
			<stop  offset="0" style="stop-color:#FFA75F"/>
			<stop  offset="1" style="stop-color:#FB5F62"/>
		</linearGradient>
		<path class="st0" d="M76.2,41.9l-30.4,76.7H19.2l30-73.3H0V0h25.1v25.9h51.1V41.9z"/>
		<linearGradient id="SVGID_2_" gradientUnits="userSpaceOnUse" x1="-7.079" y1="72.2395" x2="506.7057" y2="72.2395">
			<stop  offset="0" style="stop-color:#FFA75F"/>
			<stop  offset="1" style="stop-color:#FB5F62"/>
		</linearGradient>
		<path class="st1" d="M95.1,45.3h-7.9V25.9h33.1v92.7H95.1V45.3z"/>
		<linearGradient id="SVGID_3_" gradientUnits="userSpaceOnUse" x1="-7.079" y1="72.6256" x2="506.7057" y2="72.6256">
			<stop  offset="0" style="stop-color:#FFA75F"/>
			<stop  offset="1" style="stop-color:#FB5F62"/>
		</linearGradient>
		<path class="st2" d="M164.7,115.4c-6.2-3.3-10.9-8.1-14.3-14.1c-3.4-6.1-5.1-13.1-5.1-21V25.9h25.1v57.4c0,3.6,0.6,6.7,1.9,9.4
			c1.3,2.7,3.1,4.8,5.5,6.3c2.4,1.5,5.1,2.2,8.1,2.2c3.1,0,5.8-0.7,8.2-2.2c2.4-1.5,4.2-3.6,5.5-6.3c1.3-2.7,1.9-5.9,1.9-9.4V56.9
			c0-4-0.8-6.9-2.5-8.9c-1.7-2-4.3-2.9-7.8-2.9c-2.1,0-4.8,0.4-8.2,1.1l-2.3-16.1c2.8-1.6,6-2.9,9.6-3.9c3.6-1,6.8-1.5,9.8-1.5
			c5.5,0,10.3,1.2,14.2,3.6c4,2.4,7,5.9,9.2,10.4c2.1,4.5,3.2,9.9,3.2,16.1v25.4c0,7.9-1.7,14.9-5.1,21c-3.4,6.1-8.1,10.8-14.3,14.1
			c-6.2,3.3-13.2,5-21.3,5C177.9,120.5,170.8,118.8,164.7,115.4z"/>
		<linearGradient id="SVGID_4_" gradientUnits="userSpaceOnUse" x1="-7.079" y1="52.3553" x2="506.7057" y2="52.3553">
			<stop  offset="0" style="stop-color:#FFA75F"/>
			<stop  offset="1" style="stop-color:#FB5F62"/>
		</linearGradient>
		<path class="st3" d="M252.3,45.3h-14.4V25.9h39.5v53h-25.1V45.3z"/>
		<linearGradient id="SVGID_5_" gradientUnits="userSpaceOnUse" x1="-7.079" y1="72.78" x2="506.7057" y2="72.78">
			<stop  offset="0" style="stop-color:#FFA75F"/>
			<stop  offset="1" style="stop-color:#FB5F62"/>
		</linearGradient>
		<path class="st4" d="M289.9,119.2V96.6c2.4,0.4,4.9,0.6,7.6,0.6c11.1-0.1,18.6-4.9,22.6-14.7V45.3h-20.2V25.9h44.9v46.9
			c0,5,0.5,10,1.5,15l6.2,30.9h-23.1l-5.6-23.2h-0.5c-0.8,4.6-2.4,8.7-5,12.4c-2.6,3.7-5.8,6.6-9.7,8.7c-3.9,2.1-8.1,3.2-12.7,3.2
			C293.9,119.7,291.8,119.5,289.9,119.2z"/>
		<linearGradient id="SVGID_6_" gradientUnits="userSpaceOnUse" x1="-7.079" y1="52.3553" x2="506.7057" y2="52.3553">
			<stop  offset="0" style="stop-color:#FFA75F"/>
			<stop  offset="1" style="stop-color:#FB5F62"/>
		</linearGradient>
		<path class="st5" d="M378.3,45.3h-14.4V25.9h39.5v53h-25.1V45.3z"/>
		<linearGradient id="SVGID_7_" gradientUnits="userSpaceOnUse" x1="-7.079" y1="72.2395" x2="506.7057" y2="72.2395">
			<stop  offset="0" style="stop-color:#FFA75F"/>
			<stop  offset="1" style="stop-color:#FB5F62"/>
		</linearGradient>
		<path class="st6" d="M500,25.9v19.5h-16.4v73.3h-25.1V45.3h-38.8V25.9H500z"/>
	</g>
	<g>
		<path class="st7" d="M11,158.8h23.2v29.1H11V158.8z M29.7,184.2v-21.7H15.6v21.7H29.7z"/>
		<path class="st7" d="M48.4,162.5h-5.3v-3.7H53v16.2h-4.6V162.5z"/>
		<path class="st7" d="M76.5,167.6c0-1.6-0.5-2.8-1.4-3.7c-0.9-0.9-2.2-1.4-3.8-1.4h-9.8v-3.7h9.9c2,0,3.7,0.4,5.2,1.1
			c1.4,0.7,2.6,1.8,3.3,3.1c0.8,1.4,1.1,3,1.1,4.9v20h-4.6V167.6z"/>
		<path class="st7" d="M88.4,188.1v-4.2c0.4,0.1,0.9,0.1,1.4,0.1c2.4-0.1,4.3-0.8,5.8-2.2c1.5-1.4,2.4-3.1,2.8-5.3v-14h-6.6v-3.7
			H103v15c0,1.5,0.2,3,0.5,4.4l2,9.6h-4.3l-1.7-8.2h-0.2c-0.2,1.5-0.8,2.8-1.7,4.1c-0.9,1.3-2.1,2.3-3.5,3.1
			c-1.4,0.8-2.9,1.1-4.6,1.1C89,188.1,88.7,188.1,88.4,188.1z"/>
		<path class="st7" d="M116.4,162.5H113v-3.7h8v29.1h-4.6V162.5z"/>
		<path class="st7" d="M153.9,184.4v3.5H130v-3.7h15.8v-14.6c0-2.5-0.6-4.3-1.7-5.5c-1.1-1.1-3-1.7-5.5-1.7h-7v-3.7h7.3
			c3.8,0,6.7,0.9,8.6,2.8c1.9,1.8,2.9,4.6,2.9,8.2v14.3L153.9,184.4z"/>
		<path class="st7" d="M164.6,169.4c0.2-1.3,0.5-2.6,1.1-3.8c0.6-1.2,1.3-2.1,2.1-2.8c0.1,0,0.2-0.2,0.5-0.3l0-0.1
			c-0.7,0.1-1.7,0.3-2.8,0.6c-1.1,0.3-2.1,0.6-3.1,0.9l-1.1-3.5c1.9-0.7,4.1-1.2,6.4-1.6c2.4-0.4,4.6-0.6,6.5-0.6c3.9,0,6.9,1,9,3.1
			c2.1,2.1,3.1,5.1,3.1,9.2v17.3h-12v-3.7h7.4v-14.2c0-2.6-0.6-4.6-1.8-5.9c-1.2-1.3-2.9-2-5.1-2c-1.6,0-2.9,0.6-4,1.8
			c-1.1,1.2-1.7,2.9-2,5l-2.2,19h-4.5L164.6,169.4z"/>
		<path class="st7" d="M217.5,161.7l-10.7,26.2h-4.9l10.6-25.4h-17.1V150h4.6v8.8h17.5V161.7z"/>
		<path class="st7" d="M244.6,162.5h-5.3v-3.7h9.9v16.2h-4.6V162.5z"/>
		<path class="st7" d="M280.4,161.7l-10.7,26.2h-4.9l10.6-25.4h-17.1V150h4.6v8.8h17.5V161.7z"/>
		<path class="st7" d="M295.3,187c-1.8-1-3.1-2.3-4.1-4.1c-1-1.8-1.5-3.8-1.5-6.1v-18h4.6v18.3c0,1.5,0.3,2.9,0.9,4
			c0.6,1.2,1.4,2.1,2.5,2.7c1.1,0.6,2.3,1,3.7,1c1.4,0,2.6-0.3,3.7-1s1.9-1.5,2.5-2.7c0.6-1.2,0.9-2.5,0.9-4v-9.8
			c0-1.6-0.4-2.8-1.1-3.7c-0.7-0.9-1.7-1.3-3-1.3c-1.1,0-2.3,0.3-3.6,0.9l-0.7-3.1c0.8-0.5,1.7-0.9,2.7-1.2c1-0.3,2-0.5,2.9-0.5
			c1.5,0,2.8,0.3,3.9,1c1.1,0.7,1.9,1.6,2.5,2.9c0.6,1.3,0.9,2.8,0.9,4.5v9.8c0,2.3-0.5,4.4-1.4,6.1c-1,1.8-2.3,3.1-4.1,4.1
			c-1.7,1-3.8,1.5-6.1,1.5C299.1,188.5,297.1,188,295.3,187z"/>
		<path class="st7" d="M326.2,162.5h-5.3v-3.7h9.9v16.2h-4.6V162.5z"/>
		<path class="st7" d="M338.3,188.1v-4.2c0.4,0.1,0.9,0.1,1.4,0.1c2.4-0.1,4.3-0.8,5.8-2.2c1.5-1.4,2.4-3.1,2.8-5.3v-14h-6.6v-3.7
			h11.1v15c0,1.5,0.2,3,0.5,4.4l2,9.6h-4.3l-1.7-8.2h-0.2c-0.2,1.5-0.8,2.8-1.7,4.1c-0.9,1.3-2.1,2.3-3.5,3.1
			c-1.4,0.8-2.9,1.1-4.6,1.1C339,188.1,338.6,188.1,338.3,188.1z"/>
		<path class="st7" d="M367.1,162.5h-5.3v-3.7h9.9v16.2h-4.6V162.5z"/>
		<path class="st7" d="M403.5,158.8v3.7h-4.9v25.4h-4.6v-25.4h-13.8v-3.7H403.5z"/>
		<path class="st7" d="M430.4,162.5h-5.3v-3.7h9.9v16.2h-4.6V162.5z"/>
		<path class="st7" d="M466.2,161.7l-10.7,26.2h-4.9l10.6-25.4h-17.1V150h4.6v8.8h17.5V161.7z"/>
		<path class="st7" d="M473.1,187l0.7-3.4c2.6,0.7,4.9,1.1,7,1.1c2.8,0,4.8-0.7,6.3-2c1.4-1.3,2.2-3.3,2.2-5.8v-14.4h-15.1v-3.7
			h19.7v17.1c0,4.1-1.1,7.2-3.3,9.3c-2.2,2.1-5.2,3.1-9.1,3.1C478.9,188.4,476.1,187.9,473.1,187z"/>
	</g>
</g>
</svg>
