<?xml version="1.0" encoding="utf-8"?>
<!-- Generator: Adobe Illustrator 22.0.1, SVG Export Plug-In . SVG Version: 6.00 Build 0)  -->
<svg version="1.1" id="Isolation_Mode" xmlns="http://www.w3.org/2000/svg" xmlns:xlink="http://www.w3.org/1999/xlink" x="0px"
	 y="0px" viewBox="0 0 130 213" style="enable-background:new 0 0 130 213;" xml:space="preserve">
<style type="text/css">
	.st0{fill:#0C1422;}
	.st1{fill:url(#SVGID_1_);}
	.st2{fill:url(#SVGID_2_);}
	.st3{fill:url(#SVGID_3_);}
	.st4{fill:#F8D9AA;}
	.st5{fill:#F68B42;}
	.st6{fill:#FFFFFF;}
	.st7{fill:#2A2D33;}
	.st8{fill:#D73150;}
	.st9{fill:#100D0F;}
	.st10{fill:url(#SVGID_4_);}
	.st11{fill:url(#SVGID_5_);}
	.st12{fill:url(#SVGID_6_);}
	.st13{fill:url(#SVGID_7_);}
	.st14{fill:url(#SVGID_8_);}
	.st15{fill:url(#SVGID_9_);}
	.st16{fill:url(#SVGID_10_);}
	.st17{fill:url(#SVGID_11_);}
	.st18{fill:url(#SVGID_12_);}
	.st19{fill:url(#SVGID_13_);}
	.st20{fill:url(#SVGID_14_);}
	.st21{fill:#2E2F30;}
	.st22{fill:#151618;}
	.st23{fill:url(#SVGID_15_);}
	.st24{fill:#32313F;}
	.st25{fill:url(#SVGID_16_);}
</style>
<g>
	<path class="st0" d="M100.3,156.2l-37.2-18.7c-14.2-7.2-28.8-13.5-43.8-18.6C12.2,116.3,6.8,110,5.9,102L0.2,50.8
		C-2,30.6,12.6,12.4,32.8,10.1l31.1-3.4c17.7-2,33.6,10.7,35.5,28.4l10.8,108.7C110.9,149.9,106.5,155.5,100.3,156.2z"/>
	<linearGradient id="SVGID_1_" gradientUnits="userSpaceOnUse" x1="10.8947" y1="163.5764" x2="120.3315" y2="163.5764">
		<stop  offset="0" style="stop-color:#F68B44"/>
		<stop  offset="1" style="stop-color:#F37560"/>
	</linearGradient>
	<path class="st1" d="M107.4,123.9l13,28.5l-17.5,7.9V213H21.6v-60.3l-10.7-3.2l7.1-23.5c2.1-7,8.6-11.8,15.9-11.8h58.4
		C98.8,114.2,104.7,117.9,107.4,123.9z"/>
	
		<linearGradient id="SVGID_2_" gradientUnits="userSpaceOnUse" x1="41.1383" y1="36.0021" x2="52.9986" y2="-3.0221" gradientTransform="matrix(0.9939 -0.1103 0.1103 0.9939 8.1206 35.4929)">
		<stop  offset="0.1836" style="stop-color:#F8D9AA"/>
		<stop  offset="0.6741" style="stop-color:#DBB9A0"/>
	</linearGradient>
	<path class="st2" d="M83.9,57.9l-1.7-0.2l-2-12C77.9,31.6,64.6,22,50.5,24.3L41,25.9c-14.1,2.3-23.7,15.6-21.4,29.7l2,12l-1.6,0.7
		c-3.3,1.5-4.8,5.4-3.3,8.8l0.3,0.6c1.2,2.6,4.1,3.9,6.8,3.2l1.6,9.6c2.3,14.1,15.6,23.7,29.7,21.4l9.5-1.5
		c14.1-2.3,23.7-15.6,21.4-29.7l-1.6-9.6c2.8-0.2,5.1-2.3,5.4-5.1l0.1-0.7C90.2,61.5,87.5,58.2,83.9,57.9z"/>
	<linearGradient id="SVGID_3_" gradientUnits="userSpaceOnUse" x1="60.8819" y1="96.9159" x2="60.8819" y2="130.3046">
		<stop  offset="0" style="stop-color:#F68B44"/>
		<stop  offset="1" style="stop-color:#F37560"/>
	</linearGradient>
	<path class="st3" d="M68.9,137.7H52.9c-7.9,0-14.4-6.4-14.4-14.4v-3.1c0-3.3,2.7-6.1,6.1-6.1h32.6c3.3,0,6.1,2.7,6.1,6.1v3.1
		C83.2,131.3,76.8,137.7,68.9,137.7z"/>
	<path class="st4" d="M73.9,114.2h-0.8l2.6-25.5l-26-2.6l-2.9,28.2c-2.8,0.5-4.9,2.9-4.9,5.8v0c0,7.8,6.3,14.1,14.1,14.1h9.7
		c7.8,0,14.1-6.3,14.1-14.1v0C79.8,116.8,77.2,114.2,73.9,114.2z"/>
	<path d="M43.2,58.3l-12.9,4c-1,0.3-2.1-0.3-2.4-1.3h0c-0.3-1,0.3-2.1,1.3-2.4l12.9-4c1-0.3,2.1,0.3,2.4,1.3v0
		C44.8,56.9,44.2,58,43.2,58.3z"/>
	<path d="M72.4,55.6l-14.2,0.1c-0.9,0-1.6-0.7-1.6-1.6v0c0-0.9,0.7-1.6,1.6-1.6l14.2-0.1c0.9,0,1.6,0.7,1.6,1.6l0,0
		C74,54.9,73.3,55.6,72.4,55.6z"/>
	<ellipse class="st0" cx="39.4" cy="67.7" rx="4" ry="4"/>
	<ellipse class="st0" cx="66.5" cy="63.2" rx="4" ry="4"/>
	<path class="st5" d="M55.6,82.6L55.6,82.6c-2.6,0.4-4.8-0.5-4.7-2l0.3-8.3l5.3-0.9l2.9,7.7C59.9,80.5,58.1,82.1,55.6,82.6z"/>
	<path class="st6" d="M60.2,105.3l-0.5,0.1c-6.3,1-12.3-3.3-13.3-9.6l0,0c-0.1-0.9,0.4-1.7,1.3-1.8L68,90.7c0.9-0.1,1.7,0.4,1.8,1.3
		v0C70.8,98.3,66.5,104.3,60.2,105.3z"/>
	<path class="st7" d="M47.2,98.4c2,4.8,7.2,7.9,12.6,7l0.5-0.1c5.4-0.9,9.3-5.4,9.7-10.6L47.2,98.4z"/>
	<path class="st8" d="M58.9,98.7c-3.4,0.6-6.2,2.4-7.7,4.7c2.4,1.7,5.5,2.5,8.6,2l0.5-0.1c3.1-0.5,5.8-2.2,7.5-4.6
		C65.6,98.9,62.3,98.1,58.9,98.7z"/>
	<path class="st9" d="M95.6,24.7C91.1,9,76.3-2.3,59.7,0.4L30.2,5.2c0,0-0.1,0-0.1,0c-5.9,1-9.3,7.3-6.8,12.7
		c5.4,12,16.9,20.9,31,22.3l6.3,0.6C75.3,42.4,88.1,36.3,95.6,24.7z"/>
	<path class="st4" d="M10.9,149.4L3,174.9c-1.6,5.1,2,10.4,7.4,10.7l0,0c7.1-2.1,12.8-7.5,15.4-14.4l5.8-15.5L10.9,149.4z"/>
	<g>
		<path class="st4" d="M128.9,171.2L115.6,142l-19.8,9l2,4.3l-22-12.7L65,161.4l39,22.5c5.8,3.3,12.8,3.7,18.9,0.9l1-0.5
			C129,182.1,131.2,176.2,128.9,171.2z"/>
		<linearGradient id="SVGID_4_" gradientUnits="userSpaceOnUse" x1="102.2675" y1="172.408" x2="131.8571" y2="154.4059">
			<stop  offset="0.1836" style="stop-color:#F8D9AA"/>
			<stop  offset="0.6741" style="stop-color:#DBB9A0"/>
		</linearGradient>
		<path class="st10" d="M124.5,184.1L124.5,184.1c-6.3,2.8-13.6,0.1-16.5-6.2L95.8,151l19.8-9l13.6,29.8
			C131.3,176.5,129.2,182,124.5,184.1z"/>
		<g>
			<g>
				
					<linearGradient id="SVGID_5_" gradientUnits="userSpaceOnUse" x1="-10.0586" y1="110.5308" x2="-11.2075" y2="99.3699" gradientTransform="matrix(0.7811 -0.127 0.1605 0.987 52.8643 41.1588)">
					<stop  offset="0.1836" style="stop-color:#F8D9AA"/>
					<stop  offset="0.6741" style="stop-color:#D9AA8E"/>
				</linearGradient>
				<path class="st11" d="M76.8,148.4l-26.3,4.3c-1.6,0.3-3.1-0.8-3.4-2.4l0,0c-0.3-1.6,0.8-3.1,2.4-3.4l26.3-4.3L76.8,148.4z"/>
				
					<linearGradient id="SVGID_6_" gradientUnits="userSpaceOnUse" x1="-222.6313" y1="115.8634" x2="-223.7691" y2="104.811" gradientTransform="matrix(0.4604 -7.485983e-02 0.1605 0.987 153.2873 24.8318)">
					<stop  offset="0.1836" style="stop-color:#F8D9AA"/>
					<stop  offset="0.6741" style="stop-color:#D9AA8E"/>
				</linearGradient>
				<path class="st12" d="M77.6,153.7l-15,2.4c-1.2,0.2-2.4-0.6-2.6-1.9l-0.2-1.3c-0.2-1.2,0.6-2.4,1.9-2.6l15-2.4L77.6,153.7z"/>
				
					<linearGradient id="SVGID_7_" gradientUnits="userSpaceOnUse" x1="-222.6558" y1="120.7952" x2="-223.7936" y2="109.7428" gradientTransform="matrix(0.4604 -7.485983e-02 0.1605 0.987 153.2873 24.8318)">
					<stop  offset="0.1836" style="stop-color:#F8D9AA"/>
					<stop  offset="0.6741" style="stop-color:#D9AA8E"/>
				</linearGradient>
				<path class="st13" d="M78.4,158.5l-15,2.4c-1.2,0.2-2.4-0.6-2.6-1.9l-0.2-1.3c-0.2-1.2,0.6-2.4,1.9-2.6l15-2.4L78.4,158.5z"/>
				
					<linearGradient id="SVGID_8_" gradientUnits="userSpaceOnUse" x1="-230.9633" y1="125.7533" x2="-232.1008" y2="114.7041" gradientTransform="matrix(0.4533 -7.369111e-02 0.1605 0.987 155.6306 24.4508)">
					<stop  offset="0.1836" style="stop-color:#F8D9AA"/>
					<stop  offset="0.6741" style="stop-color:#D9AA8E"/>
				</linearGradient>
				<path class="st14" d="M79.2,163.4l-14.7,2.4c-1.2,0.2-2.4-0.6-2.6-1.9l-0.2-1.4c-0.2-1.2,0.6-2.4,1.9-2.6l14.7-2.4L79.2,163.4z"
					/>
				
					<linearGradient id="SVGID_9_" gradientUnits="userSpaceOnUse" x1="-413.7945" y1="99.9676" x2="-414.9326" y2="88.9124" gradientTransform="matrix(0.3618 -5.881546e-02 0.1229 0.7562 210.6232 67.9447)">
					<stop  offset="0.1836" style="stop-color:#F8D9AA"/>
					<stop  offset="0.6741" style="stop-color:#D9AA8E"/>
				</linearGradient>
				<path class="st15" d="M79.7,166.2l-11.8,1.9c-1,0.2-1.9-0.5-2-1.5l-0.2-1c-0.2-1,0.5-1.9,1.5-2l11.8-1.9L79.7,166.2z"/>
			</g>
			<g>
				<linearGradient id="SVGID_10_" gradientUnits="userSpaceOnUse" x1="77.1885" y1="143.5266" x2="69.4202" y2="145.8053">
					<stop  offset="0.1836" style="stop-color:#F8D9AA"/>
					<stop  offset="0.6741" style="stop-color:#F8D9AA;stop-opacity:0"/>
				</linearGradient>
				<path class="st16" d="M76.8,148.4l-26.3,4.3c-1.6,0.3-3.1-0.8-3.4-2.4l0,0c-0.3-1.6,0.8-3.1,2.4-3.4l26.3-4.3L76.8,148.4z"/>
				<linearGradient id="SVGID_11_" gradientUnits="userSpaceOnUse" x1="78.2133" y1="150.596" x2="69.926" y2="151.9427">
					<stop  offset="0.1836" style="stop-color:#F8D9AA"/>
					<stop  offset="0.6741" style="stop-color:#F8D9AA;stop-opacity:0"/>
				</linearGradient>
				<path class="st17" d="M77.6,153.7l-15,2.4c-1.2,0.2-2.4-0.6-2.6-1.9l-0.2-1.3c-0.2-1.2,0.6-2.4,1.9-2.6l15-2.4L77.6,153.7z"/>
				<linearGradient id="SVGID_12_" gradientUnits="userSpaceOnUse" x1="78.2698" y1="155.3125" x2="71.4336" y2="156.659">
					<stop  offset="0.1836" style="stop-color:#F8D9AA"/>
					<stop  offset="0.6741" style="stop-color:#F8D9AA;stop-opacity:0"/>
				</linearGradient>
				<path class="st18" d="M78.4,158.5l-15,2.4c-1.2,0.2-2.4-0.6-2.6-1.9l-0.2-1.3c-0.2-1.2,0.6-2.4,1.9-2.6l15-2.4L78.4,158.5z"/>
				<linearGradient id="SVGID_13_" gradientUnits="userSpaceOnUse" x1="82.0268" y1="159.7296" x2="70.4259" y2="161.9048">
					<stop  offset="0.1836" style="stop-color:#F8D9AA"/>
					<stop  offset="0.6741" style="stop-color:#F8D9AA;stop-opacity:0"/>
				</linearGradient>
				<path class="st19" d="M79.2,163.4l-14.7,2.4c-1.2,0.2-2.4-0.6-2.6-1.9l-0.2-1.4c-0.2-1.2,0.6-2.4,1.9-2.6l14.7-2.4L79.2,163.4z"
					/>
				<linearGradient id="SVGID_14_" gradientUnits="userSpaceOnUse" x1="80.2697" y1="163.489" x2="72.2942" y2="165.1462">
					<stop  offset="0.1836" style="stop-color:#F8D9AA"/>
					<stop  offset="0.6741" style="stop-color:#F8D9AA;stop-opacity:0"/>
				</linearGradient>
				<path class="st20" d="M79.7,166.2l-11.8,1.9c-1,0.2-1.9-0.5-2-1.5l-0.2-1c-0.2-1,0.5-1.9,1.5-2l11.8-1.9L79.7,166.2z"/>
			</g>
		</g>
	</g>
	<g>
		<path class="st21" d="M53.3,184.8l-15.8,4c-4.2,1.1-8.5-1.5-9.5-5.7l-9.9-39.3c-1.1-4.2,1.5-8.5,5.7-9.5l15.8-4
			c4.2-1.1,8.5,1.5,9.5,5.7l9.9,39.3C60,179.5,57.5,183.7,53.3,184.8z"/>
		<path class="st22" d="M51.5,185.2l-14.4,3.6c-4,1-8-1.4-9-5.4L18.4,145c-1-4,1.4-8,5.4-9l14.4-3.6c4-1,8,1.4,9,5.4l9.7,38.4
			C57.9,180.2,55.5,184.2,51.5,185.2z"/>
		
			<rect x="19.3" y="146.3" transform="matrix(0.9699 -0.2435 0.2435 0.9699 -34.7414 12.7527)" class="st21" width="29.8" height="1.2"/>
		
			<rect x="27.8" y="180" transform="matrix(0.9699 -0.2435 0.2435 0.9699 -42.6927 15.8344)" class="st21" width="29.8" height="1.2"/>
	</g>
	<linearGradient id="SVGID_15_" gradientUnits="userSpaceOnUse" x1="16.2239" y1="169.0819" x2="42.4571" y2="161.7642">
		<stop  offset="0.1836" style="stop-color:#F8D9AA"/>
		<stop  offset="0.6741" style="stop-color:#D9AA8E"/>
	</linearGradient>
	<path class="st23" d="M33.5,158.7l-5.7,1.5l0-4.3c0-1.7-1.4-3.1-3.2-3.1l0,0c-1.7,0-3.1,1.4-3.1,3.2l0,5.9l-6.5,1.7l1.3,4.8
		l-1.4,0.4l1.3,4.8l-1,0.3l1.3,4.8l-1.4,0.4l1,3.9l19.4-5c1.1-0.3,1.7-1.4,1.5-2.5c-0.1-0.5-0.4-0.9-0.8-1.2c1-0.7,1.6-1.9,1.3-3.2
		l0,0c-0.2-0.9-0.8-1.5-1.5-1.9c1-0.7,1.6-1.9,1.3-3.2l0,0c-0.2-0.8-0.7-1.4-1.4-1.8c1.3-0.6,2-2,1.6-3.4l0,0
		C36.6,159.2,35.1,158.3,33.5,158.7z"/>
	<g>
		<path class="st24" d="M59.1,28.3l-4.7,2.1c5.8,4.4,13.1,7,20.9,7c1.8,0,3.7-0.1,5.4-0.4C72.5,36.6,64.9,33.4,59.1,28.3z"/>
		<path class="st24" d="M54.5,23.4c-4.5-5.8-7.2-13.1-7.3-21l-6.8,1.1c0.3,8.5,3.6,16.3,9,22.2L54.5,23.4z"/>
	</g>
	<linearGradient id="SVGID_16_" gradientUnits="userSpaceOnUse" x1="59.6803" y1="118.5996" x2="58.2329" y2="104.5383">
		<stop  offset="0.1836" style="stop-color:#F8D9AA"/>
		<stop  offset="0.6741" style="stop-color:#D9AA8E"/>
	</linearGradient>
	<path class="st25" d="M73.4,115.6l0.5-9c-2.8,1.7-6,2.9-9.4,3.5l-9.5,1.5c-2.7,0.4-5.3,0.4-7.9,0.1l-0.3,2.5
		c-1.1,0.2-2.1,0.7-2.9,1.4c1.7,3.5,7.2,5.3,11,4.7l9.5-1.5C67.7,118.3,70.7,117.2,73.4,115.6z"/>
</g>
</svg>
