<?xml version="1.0" encoding="utf-8"?>
<!-- Generator: Adobe Illustrator 22.0.1, SVG Export Plug-In . SVG Version: 6.00 Build 0)  -->
<svg version="1.1" id="Layer_2" xmlns="http://www.w3.org/2000/svg" xmlns:xlink="http://www.w3.org/1999/xlink" x="0px" y="0px"
	 viewBox="0 0 140 230.2" style="enable-background:new 0 0 140 230.2;" xml:space="preserve">
<style type="text/css">
	.st0{fill:#B7B7C4;}
	.st1{fill:#D2D2D8;}
	.st2{fill:url(#SVGID_1_);}
	.st3{fill:url(#SVGID_2_);}
	.st4{fill:url(#SVGID_3_);}
	.st5{fill:#86868E;}
	.st6{fill:#F7F1E7;}
	.st7{fill:#2A2D33;}
	.st8{fill:#0C1422;}
	.st9{fill:#F68B42;}
	.st10{fill:#FFFFFF;}
	.st11{fill:#D73150;}
	.st12{fill:url(#SVGID_4_);}
	.st13{fill:url(#SVGID_5_);}
	.st14{fill:url(#SVGID_6_);}
	.st15{fill:url(#SVGID_7_);}
	.st16{fill:#F6DABC;}
	.st17{fill:url(#SVGID_8_);}
	.st18{fill:url(#SVGID_9_);}
	.st19{fill:url(#SVGID_10_);}
	.st20{fill:url(#SVGID_11_);}
	.st21{fill:url(#SVGID_12_);}
	.st22{fill:url(#SVGID_13_);}
	.st23{fill:url(#SVGID_14_);}
	.st24{fill:url(#SVGID_15_);}
	.st25{fill:url(#SVGID_16_);}
	.st26{fill:url(#SVGID_17_);}
	.st27{fill:url(#SVGID_18_);}
	.st28{fill:url(#SVGID_19_);}
	.st29{fill:url(#SVGID_20_);}
	.st30{fill:url(#SVGID_21_);}
	.st31{fill:url(#SVGID_22_);}
</style>
<g>
	<g>
		<path class="st0" d="M106.1,82.7H32.5l-0.3-48C31.2,15.8,46.3,0,65.2,0h8.2c18.9,0,34,15.8,33,34.7L106.1,82.7z"/>
	</g>
	<g>
		<path class="st1" d="M29.9,104.3h11.7c6.7,0,11.1-7,8.2-13L39.5,70h-9.2L19.7,84.4C13.7,92.7,19.6,104.3,29.9,104.3z"/>
		<path class="st1" d="M108.5,104.3l-9,0.1c-6.3,0.1-10.8-6.2-8.6-12.2l8-22.2h9.2l10.5,14.4C124.6,92.7,118.7,104.3,108.5,104.3z"
			/>
	</g>
	<g>
		<linearGradient id="SVGID_1_" gradientUnits="userSpaceOnUse" x1="71.4776" y1="57.7517" x2="81.9494" y2="-61.8477">
			<stop  offset="0.1836" style="stop-color:#F7DABC"/>
			<stop  offset="0.6741" style="stop-color:#EAAB90"/>
		</linearGradient>
		<path class="st2" d="M69.6,113.4L69.6,113.4c-19.2,0-34.7-15.5-34.7-34.7l3.4-29.6l0.8-8.5C40.2,30.1,49,22,59.7,22h19.8
			c10.7,0,19.5,8.1,20.6,18.6l0.8,8.5l3.4,29.6C104.3,97.8,88.8,113.4,69.6,113.4z"/>
		<linearGradient id="SVGID_2_" gradientUnits="userSpaceOnUse" x1="38.6478" y1="66.5748" x2="16.2229" y2="64.3013">
			<stop  offset="0.1836" style="stop-color:#F7DABC"/>
			<stop  offset="0.6741" style="stop-color:#EAAB90"/>
		</linearGradient>
		<path class="st3" d="M36.9,73.1h-2.2c-3,0-5.5-2.5-5.5-5.5v-2.3c0-3.2,2.6-5.8,5.8-5.8h1.8V73.1z"/>
		<linearGradient id="SVGID_3_" gradientUnits="userSpaceOnUse" x1="97.8537" y1="66.7772" x2="126.789" y2="63.8837">
			<stop  offset="0.1836" style="stop-color:#F7DABC"/>
			<stop  offset="0.6741" style="stop-color:#EAAB90"/>
		</linearGradient>
		<path class="st4" d="M101.6,73.1h2.2c3,0,5.5-2.5,5.5-5.5v-2.3c0-3.2-2.6-5.8-5.8-5.8h-1.8V73.1z"/>
	</g>
	<path class="st0" d="M77.8,26.7H60.7c-5.3,0-9.6-4.3-9.6-9.6v0h36.4v0C87.5,22.3,83.2,26.7,77.8,26.7z"/>
	<g>
		<path class="st5" d="M62.6,53.4c-6.6-2.1-10.4-1.3-15.3,2.5c-0.4,0.3-1,0.2-1.4-0.3c-0.3-0.4-0.4-0.6-0.7-1
			c-0.4-0.5-0.3-1.2,0.2-1.6c5.9-3.9,10.2-4.6,17.5-2c0.6,0.2,1.1,0.8,1,1.2c-0.1,0.3-0.1,0.5-0.2,0.8
			C63.7,53.4,63.2,53.5,62.6,53.4z"/>
	</g>
	<circle class="st6" cx="104.5" cy="73.7" r="2.5"/>
	<circle class="st6" cx="34.2" cy="73.7" r="2.5"/>
	<g>
		<path class="st7" d="M81.9,94.1c0-0.2,0.1-0.3,0.1-0.5C81.9,93.8,81.9,93.9,81.9,94.1z"/>
		<path class="st7" d="M82,93.5c0-0.1,0-0.3,0.1-0.4C82,93.2,82,93.3,82,93.5z"/>
	</g>
	<g>
		<path class="st5" d="M75.2,52.9c6.6-2.1,10.4-1.3,15.3,2.5c0.4,0.3,1,0.2,1.4-0.3c0.3-0.4,0.4-0.6,0.7-1c0.4-0.5,0.3-1.2-0.2-1.6
			c-5.9-3.9-10.2-4.6-17.5-2c-0.6,0.2-1.1,0.8-1,1.2c0.1,0.3,0.1,0.5,0.2,0.8C74.1,53,74.7,53.1,75.2,52.9z"/>
	</g>
	<circle class="st8" cx="56.6" cy="60.5" r="4"/>
	<circle class="st8" cx="81.8" cy="60.1" r="4"/>
	<path class="st9" d="M70.1,79.2L70.1,79.2c-2.6,0.1-4.7-1.1-4.4-2.6l1.4-8.1l5.4-0.2l1.9,8.1C74.7,77.8,72.7,79.2,70.1,79.2z"/>
	<path class="st7" d="M57.8,92.3c0.5,2,1.6,3.8,3.1,5.2h18.4c1.5-1.4,2.5-3.2,3.1-5.2H57.8z"/>
	<g>
		<path class="st10" d="M60.9,97.5c2,1.9,4.7,3.1,7.7,3.1h3c3,0,5.7-1.2,7.7-3.1H60.9z"/>
		<path class="st10" d="M60.9,97.5c-0.9-0.9-1.7-1.9-2.3-3C59.3,95.6,60,96.6,60.9,97.5z"/>
		<path class="st10" d="M79.4,97.5c0.9-0.9,1.7-1.9,2.3-3C81,95.6,80.3,96.6,79.4,97.5z"/>
		<path class="st10" d="M57.4,89.3L57.4,89.3c0,1.8,0.4,3.6,1.2,5.1c-0.3-0.7-0.6-1.4-0.8-2.1h24.6c-0.2,0.7-0.5,1.5-0.8,2.1
			c0.8-1.5,1.2-3.3,1.2-5.1v0H57.4z"/>
	</g>
	<path class="st11" d="M70.1,93.7c-3,0-5.8,1.5-7.6,3.7h15.2C75.8,95.2,73.1,93.7,70.1,93.7z"/>
	<g>
		
			<linearGradient id="SVGID_4_" gradientUnits="userSpaceOnUse" x1="115.5931" y1="280.2116" x2="117.7034" y2="275.5041" gradientTransform="matrix(0.9554 -0.2021 0.2839 0.8303 -73.7407 -1.213771e-02)">
			<stop  offset="0.1836" style="stop-color:#F7DABC"/>
			<stop  offset="0.6741" style="stop-color:#EAAB90"/>
		</linearGradient>
		<path class="st12" d="M112.1,205.8l11.2,1.8l-0.7,4.2l-11.2-1.8c-1.2-0.2-1.9-1.3-1.8-2.4l0,0
			C109.9,206.4,110.9,205.6,112.1,205.8z"/>
		
			<linearGradient id="SVGID_5_" gradientUnits="userSpaceOnUse" x1="121.0868" y1="281.9125" x2="113.0033" y2="278.1467" gradientTransform="matrix(0.9554 -0.2021 0.2839 0.8303 -73.7407 -1.213771e-02)">
			<stop  offset="0" style="stop-color:#F7DABC"/>
			<stop  offset="1" style="stop-color:#F6DABC;stop-opacity:0"/>
		</linearGradient>
		<path class="st13" d="M112.1,205.8l11.2,1.8l-0.7,4.2l-11.2-1.8c-1.2-0.2-1.9-1.3-1.8-2.4l0,0
			C109.9,206.4,110.9,205.6,112.1,205.8z"/>
	</g>
	<linearGradient id="SVGID_6_" gradientUnits="userSpaceOnUse" x1="67.3902" y1="218.1189" x2="67.3902" y2="126.6747">
		<stop  offset="0" style="stop-color:#2B3560"/>
		<stop  offset="0.6741" style="stop-color:#374868"/>
	</linearGradient>
	<path class="st14" d="M20.1,134.3l-16.9,36l20.9,9.8l2.8-6.3v52.8h88.3v-56.4l16.5-6.2l-11.5-30.6c-3-8.1-10.7-13.4-19.3-13.4
		l-58.3,0C32.9,120.1,24.2,125.6,20.1,134.3z"/>
	<linearGradient id="SVGID_7_" gradientUnits="userSpaceOnUse" x1="70.0219" y1="122.0943" x2="69.9186" y2="100.8061">
		<stop  offset="0.1836" style="stop-color:#F7DABC"/>
		<stop  offset="0.6741" style="stop-color:#EAAB90"/>
	</linearGradient>
	<path class="st15" d="M69.6,113.4L69.6,113.4c-3.9,0-7.7-0.7-11.3-1.9v18.9h23.4v-19.2C77.9,112.6,73.8,113.4,69.6,113.4z"/>
	<path class="st16" d="M70,145.9L70,145.9c-6.5,0-12.4-3.7-15.2-9.5l-4.9-10c-1.3-2.7,0.7-5.9,3.7-5.9h32.7c3.1,0,5.1,3.2,3.7,5.9
		l-4.9,10C82.4,142.3,76.5,145.9,70,145.9z"/>
	<g>
		
			<linearGradient id="SVGID_8_" gradientUnits="userSpaceOnUse" x1="95.1278" y1="473.0919" x2="95.1278" y2="464.2516" gradientTransform="matrix(0.8097 -0.5869 0.5869 0.8097 -231.42 -102.6512)">
			<stop  offset="0.1836" style="stop-color:#F7DABC"/>
			<stop  offset="0.6741" style="stop-color:#EAAB90"/>
		</linearGradient>
		<path class="st17" d="M130.3,221.5l-11.7,6c-0.9,0.7-2.2,0.5-2.9-0.5l0-0.1c-0.7-0.9-0.5-2.2,0.5-2.9l11.7-6L130.3,221.5z"/>
		
			<linearGradient id="SVGID_9_" gradientUnits="userSpaceOnUse" x1="94.3494" y1="468.127" x2="94.3494" y2="461.8979" gradientTransform="matrix(0.8097 -0.5869 0.5869 0.8097 -231.42 -102.6512)">
			<stop  offset="0.1836" style="stop-color:#F7DABC"/>
			<stop  offset="0.6741" style="stop-color:#EAAB90"/>
		</linearGradient>
		<path class="st18" d="M128,218.3l-12.8,6.8c-1,0.7-2.4,0.5-3.1-0.5l0,0c-0.7-1-0.5-2.4,0.5-3.1l12.8-6.8L128,218.3z"/>
		
			<linearGradient id="SVGID_10_" gradientUnits="userSpaceOnUse" x1="94.3494" y1="465.0177" x2="94.3494" y2="455.7129" gradientTransform="matrix(0.8097 -0.5869 0.5869 0.8097 -231.42 -102.6512)">
			<stop  offset="0.1836" style="stop-color:#F7DABC"/>
			<stop  offset="0.6741" style="stop-color:#EAAB90"/>
		</linearGradient>
		<path class="st19" d="M125.4,214.7l-12.8,6.8c-1,0.7-2.4,0.5-3.1-0.5l0,0c-0.7-1-0.5-2.4,0.5-3.1l12.8-6.8L125.4,214.7z"/>
		
			<linearGradient id="SVGID_11_" gradientUnits="userSpaceOnUse" x1="94.3494" y1="460.2775" x2="94.3494" y2="452.0445" gradientTransform="matrix(0.8097 -0.5869 0.5869 0.8097 -231.42 -102.6512)">
			<stop  offset="0.1836" style="stop-color:#F7DABC"/>
			<stop  offset="0.6741" style="stop-color:#EAAB90"/>
		</linearGradient>
		<path class="st20" d="M122.8,211.2L110,218c-1,0.7-2.4,0.5-3.1-0.5l0,0c-0.7-1-0.5-2.4,0.5-3.1l12.8-6.8L122.8,211.2z"/>
		
			<linearGradient id="SVGID_12_" gradientUnits="userSpaceOnUse" x1="102.8561" y1="458.7698" x2="92.7065" y2="458.7698" gradientTransform="matrix(0.8097 -0.5869 0.5869 0.8097 -231.42 -102.6512)">
			<stop  offset="0" style="stop-color:#F7DABC"/>
			<stop  offset="1" style="stop-color:#F6DABC;stop-opacity:0"/>
		</linearGradient>
		<path class="st21" d="M122.8,211.2L110,218c-1,0.7-2.4,0.5-3.1-0.5l0,0c-0.7-1-0.5-2.4,0.5-3.1l12.8-6.8L122.8,211.2z"/>
		
			<linearGradient id="SVGID_13_" gradientUnits="userSpaceOnUse" x1="99.865" y1="471.7108" x2="94.3441" y2="471.7108" gradientTransform="matrix(0.8097 -0.5869 0.5869 0.8097 -231.42 -102.6512)">
			<stop  offset="0" style="stop-color:#F7DABC"/>
			<stop  offset="1" style="stop-color:#F6DABC;stop-opacity:0"/>
		</linearGradient>
		<path class="st22" d="M130.3,221.5l-11.7,6c-0.9,0.7-2.2,0.5-2.9-0.5l0-0.1c-0.7-0.9-0.5-2.2,0.5-2.9l11.7-6L130.3,221.5z"/>
		
			<linearGradient id="SVGID_14_" gradientUnits="userSpaceOnUse" x1="102.6174" y1="467.4905" x2="92.9756" y2="467.4905" gradientTransform="matrix(0.8097 -0.5869 0.5869 0.8097 -231.42 -102.6512)">
			<stop  offset="0" style="stop-color:#F7DABC"/>
			<stop  offset="1" style="stop-color:#F6DABC;stop-opacity:0"/>
		</linearGradient>
		<path class="st23" d="M128,218.3l-12.8,6.8c-1,0.7-2.4,0.5-3.1-0.5l0,0c-0.7-1-0.5-2.4,0.5-3.1l12.8-6.8L128,218.3z"/>
		
			<linearGradient id="SVGID_15_" gradientUnits="userSpaceOnUse" x1="102.8263" y1="463.0908" x2="92.6689" y2="463.0908" gradientTransform="matrix(0.8097 -0.5869 0.5869 0.8097 -231.42 -102.6512)">
			<stop  offset="0" style="stop-color:#F7DABC"/>
			<stop  offset="1" style="stop-color:#F6DABC;stop-opacity:0"/>
		</linearGradient>
		<path class="st24" d="M125.4,214.7l-12.8,6.8c-1,0.7-2.4,0.5-3.1-0.5l0,0c-0.7-1-0.5-2.4,0.5-3.1l12.8-6.8L125.4,214.7z"/>
	</g>
	<g>
		<linearGradient id="SVGID_16_" gradientUnits="userSpaceOnUse" x1="20.9419" y1="198.632" x2="-17.9141" y2="189.1247">
			<stop  offset="0.1836" style="stop-color:#F7DABC"/>
			<stop  offset="0.6741" style="stop-color:#EAAB90"/>
		</linearGradient>
		<path class="st25" d="M32.6,216.3l-8-26.3c-1-3.2-1.2-6.5-0.6-9.8l0,0l-20.9-9.8L0.9,177c-0.6,1.7-0.9,3.6-0.9,5.4l0,0
			c0,2.8,0.7,5.5,2,8l17,31.7L32.6,216.3z"/>
		<linearGradient id="SVGID_17_" gradientUnits="userSpaceOnUse" x1="25.2897" y1="227.1223" x2="30.25" y2="218.6484">
			<stop  offset="0.1836" style="stop-color:#F7DABC"/>
			<stop  offset="0.6741" style="stop-color:#EAAB90"/>
		</linearGradient>
		<path class="st26" d="M30.6,229.9L19,222.1l2.1-3.1l11.5,7.8c0.9,0.6,1.1,1.8,0.5,2.6l0,0C32.6,230.2,31.4,230.4,30.6,229.9z"/>
		<linearGradient id="SVGID_18_" gradientUnits="userSpaceOnUse" x1="27.8354" y1="223.0716" x2="31.2973" y2="218.2146">
			<stop  offset="0.1836" style="stop-color:#F7DABC"/>
			<stop  offset="0.6741" style="stop-color:#EAAB90"/>
		</linearGradient>
		<path class="st27" d="M32.4,227.2l-11.5-7.8l2.1-3.1l11.5,7.8c0.9,0.6,1.1,1.8,0.5,2.6l0,0C34.4,227.5,33.2,227.8,32.4,227.2z"/>
		<linearGradient id="SVGID_19_" gradientUnits="userSpaceOnUse" x1="29.8322" y1="220.0882" x2="32.6741" y2="216.1613">
			<stop  offset="0.1836" style="stop-color:#F7DABC"/>
			<stop  offset="0.6741" style="stop-color:#EAAB90"/>
		</linearGradient>
		<path class="st28" d="M34.4,224.2l-11.5-7.8l2.1-3.1l11.5,7.8c0.9,0.6,1.1,1.8,0.5,2.6l0,0C36.4,224.6,35.3,224.8,34.4,224.2z"/>
		
			<linearGradient id="SVGID_20_" gradientUnits="userSpaceOnUse" x1="49.0593" y1="275.7376" x2="50.1961" y2="270.3639" gradientTransform="matrix(0.9919 -0.1273 0.1273 0.9919 -51.7054 -53.9704)">
			<stop  offset="0.1836" style="stop-color:#F7DABC"/>
			<stop  offset="0.6741" style="stop-color:#EAAB90"/>
		</linearGradient>
		<path class="st29" d="M35.7,214.3h-8.8v-3.8h8.8c1,0,1.9,0.8,1.9,1.9v0C37.5,213.4,36.7,214.3,35.7,214.3z"/>
		<linearGradient id="SVGID_21_" gradientUnits="userSpaceOnUse" x1="31.8101" y1="217.2771" x2="34.7037" y2="212.6268">
			<stop  offset="0.1836" style="stop-color:#F7DABC"/>
			<stop  offset="0.6741" style="stop-color:#EAAB90"/>
		</linearGradient>
		<path class="st30" d="M36.3,221.4l-11.5-7.8l2.1-3.1l11.5,7.8c0.9,0.6,1.1,1.8,0.5,2.6l0,0C38.3,221.8,37.2,222,36.3,221.4z"/>
	</g>
	<linearGradient id="SVGID_22_" gradientUnits="userSpaceOnUse" x1="124.2315" y1="193.9108" x2="158.9539" y2="166.629">
		<stop  offset="0.1836" style="stop-color:#F7DABC"/>
		<stop  offset="0.6741" style="stop-color:#EAAB90"/>
	</linearGradient>
	<path class="st31" d="M135.5,174l-3.8-9.9l-20.3,7.6l6,11.7c0.7,1.4,1.3,2.8,1.7,4.2l3.4,11.2c0.8,2.6,0.7,5.3-0.2,7.8l-1.5,4
		l9.7,10.9l6.2-8c2.4-3.1,3.6-7,3.4-10.9l-0.4-9.2C139.3,186.8,137.9,180.2,135.5,174z"/>
</g>
</svg>
