<?xml version="1.0" encoding="utf-8"?>
<!-- Generator: Adobe Illustrator 22.0.1, SVG Export Plug-In . SVG Version: 6.00 Build 0)  -->
<svg version="1.1" id="Layer_1" xmlns="http://www.w3.org/2000/svg" xmlns:xlink="http://www.w3.org/1999/xlink" x="0px" y="0px"
	 viewBox="0 0 139 216" style="enable-background:new 0 0 139 216;" xml:space="preserve">
<style type="text/css">
	.st0{fill:#B6B7C4;}
	.st1{fill:url(#SVGID_1_);}
	.st2{fill:url(#SVGID_2_);}
	.st3{fill:url(#SVGID_3_);}
	.st4{fill:#2A2D33;}
	.st5{fill:#F58A41;}
	.st6{fill:#FFFFFF;}
	.st7{fill:#D63150;}
	.st8{fill:url(#SVGID_4_);}
	.st9{fill:url(#SVGID_5_);}
	.st10{fill:url(#SVGID_6_);}
	.st11{fill:url(#SVGID_7_);}
	.st12{fill:url(#SVGID_8_);}
	.st13{fill:url(#SVGID_9_);}
	.st14{fill:url(#SVGID_10_);}
	.st15{fill:url(#SVGID_11_);}
	.st16{fill:url(#SVGID_12_);}
	.st17{fill:url(#SVGID_13_);}
	.st18{fill:url(#SVGID_14_);}
	.st19{fill:url(#SVGID_15_);}
	.st20{fill:url(#SVGID_16_);}
	.st21{fill:url(#SVGID_17_);}
	.st22{fill:url(#SVGID_18_);}
	.st23{fill:url(#SVGID_19_);}
	.st24{fill:url(#SVGID_20_);}
	.st25{fill:url(#SVGID_21_);}
	.st26{fill:url(#SVGID_22_);}
	.st27{fill:#F6DABC;}
	.st28{fill:#0C1422;}
	.st29{fill:#85858D;}
	.st30{fill:url(#SVGID_23_);}
</style>
<g>
	<path class="st0" d="M104.5,66.1H34.8L22.5,37.4c0-11.3,9.2-20.5,20.5-20.5h53.3c11.3,0,20.5,9.2,20.5,20.5L104.5,66.1z"/>
	<g>
		<linearGradient id="SVGID_1_" gradientUnits="userSpaceOnUse" x1="70.4672" y1="39.425" x2="81.48" y2="-86.3533">
			<stop  offset="0.1836" style="stop-color:#F6D9BB"/>
			<stop  offset="0.6741" style="stop-color:#E9AB8F"/>
		</linearGradient>
		<path class="st1" d="M79.6,97.1H58.7c-13.6,0-24.6-11-24.6-24.6V36.1C34.1,16.7,49.8,1,69.2,1h0c19.4,0,35.1,15.7,35.1,35.1v36.4
			C104.2,86.1,93.2,97.1,79.6,97.1z"/>
		<linearGradient id="SVGID_2_" gradientUnits="userSpaceOnUse" x1="36.7904" y1="48.3097" x2="12.9661" y2="45.8943">
			<stop  offset="0.1836" style="stop-color:#F6D9BB"/>
			<stop  offset="0.6741" style="stop-color:#E9AB8F"/>
		</linearGradient>
		<path class="st2" d="M34.6,58.4h-0.9c-3.7,0-6.7-3-6.7-6.7v-6.9c0-3.9,3.2-7.1,7.1-7.1h0.4V58.4z"/>
		<linearGradient id="SVGID_3_" gradientUnits="userSpaceOnUse" x1="99.4077" y1="48.5245" x2="130.1234" y2="45.4529">
			<stop  offset="0.1836" style="stop-color:#F6D9BB"/>
			<stop  offset="0.6741" style="stop-color:#E9AB8F"/>
		</linearGradient>
		<path class="st3" d="M103.7,58.4h0.9c3.7,0,6.7-3,6.7-6.7v-6.9c0-3.9-3.2-7.1-7.1-7.1h-0.4V58.4z"/>
	</g>
	<g>
		<path class="st4" d="M81.3,78c0-0.2,0.1-0.3,0.1-0.5C81.3,77.7,81.3,77.8,81.3,78z"/>
		<path class="st4" d="M81.4,77.4c0-0.1,0-0.3,0.1-0.4C81.4,77.1,81.4,77.2,81.4,77.4z"/>
	</g>
	<path class="st5" d="M69.3,48.8L69.3,48.8c2.6,0,4.6,2.1,4.2,4.4L72,63.4c-0.2,1.5-1.5,2.6-3,2.6l0,0c-1.5,0-2.8-1.2-3-2.7
		l-1.1-10.2C64.7,50.8,66.7,48.8,69.3,48.8z"/>
	<path class="st4" d="M57.4,76.2c0.5,2,1.6,3.7,3.1,5.1h18.3c1.4-1.4,2.5-3.1,3.1-5.1H57.4z"/>
	<g>
		<path class="st6" d="M60.5,81.4c2,1.9,4.7,3.1,7.7,3.1h2.9c3,0,5.7-1.2,7.7-3.1H60.5z"/>
		<path class="st6" d="M60.5,81.4c-0.9-0.9-1.7-1.9-2.2-3C58.8,79.5,59.6,80.5,60.5,81.4z"/>
		<path class="st6" d="M78.8,81.4c0.9-0.9,1.7-1.9,2.2-3C80.5,79.5,79.7,80.5,78.8,81.4z"/>
		<path class="st6" d="M57,73.3L57,73.3c0,1.8,0.4,3.5,1.2,5.1c-0.3-0.7-0.6-1.4-0.8-2.1h24.4c-0.2,0.7-0.5,1.5-0.8,2.1
			c0.8-1.5,1.2-3.2,1.2-5.1v0H57z"/>
	</g>
	<path class="st7" d="M69.5,77.6c-3,0-5.7,1.4-7.5,3.7h15.1C75.3,79.1,72.6,77.6,69.5,77.6z"/>
	<g>
		
			<linearGradient id="SVGID_4_" gradientUnits="userSpaceOnUse" x1="156.7894" y1="-128.3778" x2="158.8823" y2="-133.0468" gradientTransform="matrix(0.9554 -0.2021 0.2839 0.8303 2.0012 332.554)">
			<stop  offset="0.1836" style="stop-color:#F6D9BB"/>
			<stop  offset="0.6741" style="stop-color:#E9AB8F"/>
		</linearGradient>
		<path class="st8" d="M111.3,190.8l11.1,1.8l-0.7,4.2l-11.1-1.8c-1.1-0.2-1.9-1.3-1.8-2.4l0,0C109,191.5,110.1,190.7,111.3,190.8z"
			/>
		
			<linearGradient id="SVGID_5_" gradientUnits="userSpaceOnUse" x1="162.238" y1="-126.6909" x2="154.2209" y2="-130.4258" gradientTransform="matrix(0.9554 -0.2021 0.2839 0.8303 2.0012 332.554)">
			<stop  offset="0" style="stop-color:#F6D9BB"/>
			<stop  offset="1" style="stop-color:#F6DABC;stop-opacity:0"/>
		</linearGradient>
		<path class="st9" d="M111.3,190.8l11.1,1.8l-0.7,4.2l-11.1-1.8c-1.1-0.2-1.9-1.3-1.8-2.4l0,0C109,191.5,110.1,190.7,111.3,190.8z"
			/>
	</g>
	<linearGradient id="SVGID_6_" gradientUnits="userSpaceOnUse" x1="66.9116" y1="121.362" x2="66.9116" y2="196.9977">
		<stop  offset="0" style="stop-color:#40795C"/>
		<stop  offset="1" style="stop-color:#405950"/>
	</linearGradient>
	<path class="st10" d="M20,119.9L3.2,155.7l20.7,9.7l2.8-6.2v52.4h87.6v-56l16.4-6.2L119.2,119c-3-8-10.6-13.3-19.2-13.3l-57.8,0
		C32.7,105.8,24,111.3,20,119.9z"/>
	<g>
		
			<linearGradient id="SVGID_7_" gradientUnits="userSpaceOnUse" x1="413.4163" y1="-510.2955" x2="413.4163" y2="-519.0632" gradientTransform="matrix(0.8097 -0.5869 0.5869 0.8097 87.0715 865.2429)">
			<stop  offset="0.1836" style="stop-color:#F6D9BB"/>
			<stop  offset="0.6741" style="stop-color:#E9AB8F"/>
		</linearGradient>
		<path class="st11" d="M129.3,206.4l-11.6,5.9c-0.9,0.7-2.2,0.5-2.8-0.5l0-0.1c-0.7-0.9-0.5-2.2,0.5-2.8l11.6-5.9L129.3,206.4z"/>
		
			<linearGradient id="SVGID_8_" gradientUnits="userSpaceOnUse" x1="412.6443" y1="-515.2197" x2="412.6443" y2="-521.3976" gradientTransform="matrix(0.8097 -0.5869 0.5869 0.8097 87.0715 865.2429)">
			<stop  offset="0.1836" style="stop-color:#F6D9BB"/>
			<stop  offset="0.6741" style="stop-color:#E9AB8F"/>
		</linearGradient>
		<path class="st12" d="M127,203.2l-12.7,6.7c-1,0.7-2.4,0.5-3.1-0.5l0,0c-0.7-1-0.5-2.4,0.5-3.1l12.7-6.7L127,203.2z"/>
		
			<linearGradient id="SVGID_9_" gradientUnits="userSpaceOnUse" x1="412.6443" y1="-518.3035" x2="412.6443" y2="-527.5319" gradientTransform="matrix(0.8097 -0.5869 0.5869 0.8097 87.0715 865.2429)">
			<stop  offset="0.1836" style="stop-color:#F6D9BB"/>
			<stop  offset="0.6741" style="stop-color:#E9AB8F"/>
		</linearGradient>
		<path class="st13" d="M124.4,199.6l-12.7,6.8c-1,0.7-2.4,0.5-3.1-0.5l0,0c-0.7-1-0.5-2.4,0.5-3.1l12.7-6.8L124.4,199.6z"/>
		
			<linearGradient id="SVGID_10_" gradientUnits="userSpaceOnUse" x1="412.6443" y1="-523.0048" x2="412.6443" y2="-531.1702" gradientTransform="matrix(0.8097 -0.5869 0.5869 0.8097 87.0715 865.2429)">
			<stop  offset="0.1836" style="stop-color:#F6D9BB"/>
			<stop  offset="0.6741" style="stop-color:#E9AB8F"/>
		</linearGradient>
		<path class="st14" d="M121.9,196.2l-12.7,6.8c-1,0.7-2.4,0.5-3.1-0.5l0,0c-0.7-1-0.5-2.4,0.5-3.1l12.7-6.8L121.9,196.2z"/>
		
			<linearGradient id="SVGID_11_" gradientUnits="userSpaceOnUse" x1="421.0811" y1="-524.5001" x2="411.0148" y2="-524.5001" gradientTransform="matrix(0.8097 -0.5869 0.5869 0.8097 87.0715 865.2429)">
			<stop  offset="0" style="stop-color:#F6D9BB"/>
			<stop  offset="1" style="stop-color:#F6DABC;stop-opacity:0"/>
		</linearGradient>
		<path class="st15" d="M121.9,196.2l-12.7,6.8c-1,0.7-2.4,0.5-3.1-0.5l0,0c-0.7-1-0.5-2.4,0.5-3.1l12.7-6.8L121.9,196.2z"/>
		
			<linearGradient id="SVGID_12_" gradientUnits="userSpaceOnUse" x1="418.1145" y1="-511.6653" x2="412.6389" y2="-511.6653" gradientTransform="matrix(0.8097 -0.5869 0.5869 0.8097 87.0715 865.2429)">
			<stop  offset="0" style="stop-color:#F6D9BB"/>
			<stop  offset="1" style="stop-color:#F6DABC;stop-opacity:0"/>
		</linearGradient>
		<path class="st16" d="M129.3,206.4l-11.6,5.9c-0.9,0.7-2.2,0.5-2.8-0.5l0-0.1c-0.7-0.9-0.5-2.2,0.5-2.8l11.6-5.9L129.3,206.4z"/>
		
			<linearGradient id="SVGID_13_" gradientUnits="userSpaceOnUse" x1="420.8444" y1="-515.851" x2="411.2817" y2="-515.851" gradientTransform="matrix(0.8097 -0.5869 0.5869 0.8097 87.0715 865.2429)">
			<stop  offset="0" style="stop-color:#F6D9BB"/>
			<stop  offset="1" style="stop-color:#F6DABC;stop-opacity:0"/>
		</linearGradient>
		<path class="st17" d="M127,203.2l-12.7,6.7c-1,0.7-2.4,0.5-3.1-0.5l0,0c-0.7-1-0.5-2.4,0.5-3.1l12.7-6.7L127,203.2z"/>
		
			<linearGradient id="SVGID_14_" gradientUnits="userSpaceOnUse" x1="421.0515" y1="-520.2145" x2="410.9775" y2="-520.2145" gradientTransform="matrix(0.8097 -0.5869 0.5869 0.8097 87.0715 865.2429)">
			<stop  offset="0" style="stop-color:#F6D9BB"/>
			<stop  offset="1" style="stop-color:#F6DABC;stop-opacity:0"/>
		</linearGradient>
		<path class="st18" d="M124.4,199.6l-12.7,6.8c-1,0.7-2.4,0.5-3.1-0.5l0,0c-0.7-1-0.5-2.4,0.5-3.1l12.7-6.8L124.4,199.6z"/>
	</g>
	<g>
		<linearGradient id="SVGID_15_" gradientUnits="userSpaceOnUse" x1="20.8445" y1="183.7213" x2="-17.6927" y2="174.292">
			<stop  offset="0.1836" style="stop-color:#F6D9BB"/>
			<stop  offset="0.6741" style="stop-color:#E9AB8F"/>
		</linearGradient>
		<path class="st19" d="M32.4,201.2l-7.9-26.1c-1-3.1-1.2-6.5-0.6-9.7l0,0l-20.7-9.7L1,162.3c-0.6,1.7-0.9,3.5-0.9,5.4l0,0
			c0,2.8,0.7,5.5,2,7.9L19,207L32.4,201.2z"/>
		<linearGradient id="SVGID_16_" gradientUnits="userSpaceOnUse" x1="25.1566" y1="211.9777" x2="30.0762" y2="203.5734">
			<stop  offset="0.1836" style="stop-color:#F6D9BB"/>
			<stop  offset="0.6741" style="stop-color:#E9AB8F"/>
		</linearGradient>
		<path class="st20" d="M30.4,214.7L19,207l2.1-3.1l11.5,7.7c0.9,0.6,1.1,1.7,0.5,2.6l0,0C32.4,215,31.3,215.3,30.4,214.7z"/>
		<linearGradient id="SVGID_17_" gradientUnits="userSpaceOnUse" x1="27.6814" y1="207.9603" x2="31.1149" y2="203.1432">
			<stop  offset="0.1836" style="stop-color:#F6D9BB"/>
			<stop  offset="0.6741" style="stop-color:#E9AB8F"/>
		</linearGradient>
		<path class="st21" d="M32.2,212l-11.5-7.7l2.1-3.1l11.5,7.7c0.9,0.6,1.1,1.7,0.5,2.6l0,0C34.2,212.4,33,212.6,32.2,212z"/>
		<linearGradient id="SVGID_18_" gradientUnits="userSpaceOnUse" x1="29.6618" y1="205.0014" x2="32.4804" y2="201.1067">
			<stop  offset="0.1836" style="stop-color:#F6D9BB"/>
			<stop  offset="0.6741" style="stop-color:#E9AB8F"/>
		</linearGradient>
		<path class="st22" d="M34.2,209.1l-11.5-7.7l2.1-3.1l11.5,7.7c0.9,0.6,1.1,1.7,0.5,2.6l0,0C36.2,209.4,35.1,209.7,34.2,209.1z"/>
		
			<linearGradient id="SVGID_19_" gradientUnits="userSpaceOnUse" x1="63.3186" y1="50.5181" x2="64.446" y2="45.1885" gradientTransform="matrix(0.9919 -0.1273 0.1273 0.9919 -37.3678 156.2011)">
			<stop  offset="0.1836" style="stop-color:#F6D9BB"/>
			<stop  offset="0.6741" style="stop-color:#E9AB8F"/>
		</linearGradient>
		<path class="st23" d="M35.4,199.2h-8.7v-3.7h8.7c1,0,1.9,0.8,1.9,1.9v0C37.3,198.4,36.5,199.2,35.4,199.2z"/>
		<linearGradient id="SVGID_20_" gradientUnits="userSpaceOnUse" x1="31.6235" y1="202.2133" x2="34.4933" y2="197.6012">
			<stop  offset="0.1836" style="stop-color:#F6D9BB"/>
			<stop  offset="0.6741" style="stop-color:#E9AB8F"/>
		</linearGradient>
		<path class="st24" d="M36.1,206.3l-11.5-7.7l2.1-3.1l11.5,7.7c0.9,0.6,1.1,1.7,0.5,2.6l0,0C38.1,206.7,36.9,206.9,36.1,206.3z"/>
	</g>
	<linearGradient id="SVGID_21_" gradientUnits="userSpaceOnUse" x1="123.2865" y1="179.0388" x2="157.7239" y2="151.9808">
		<stop  offset="0.1836" style="stop-color:#F6D9BB"/>
		<stop  offset="0.6741" style="stop-color:#E9AB8F"/>
	</linearGradient>
	<path class="st25" d="M134.4,159.2l-3.8-9.9l-20.2,7.6l6,11.7c0.7,1.3,1.3,2.7,1.7,4.2l3.3,11.1c0.8,2.6,0.7,5.3-0.2,7.8l-1.5,4
		l9.6,10.8l6.1-7.9c2.4-3.1,3.6-6.9,3.4-10.8l-0.4-9.1C138.2,171.9,136.8,165.4,134.4,159.2z"/>
	<linearGradient id="SVGID_22_" gradientUnits="userSpaceOnUse" x1="69.6125" y1="137.5883" x2="69.6125" y2="111.8152">
		<stop  offset="0" style="stop-color:#40795C"/>
		<stop  offset="1" style="stop-color:#405950"/>
	</linearGradient>
	<path class="st26" d="M54.5,122c2.8,5.8,8.7,9.4,15.1,9.4s12.3-3.7,15.1-9.4l4.8-9.9c1.3-2.7-0.7-5.9-3.7-5.9H53.4
		c-3,0-5,3.2-3.7,5.9L54.5,122z"/>
	<path class="st27" d="M69.6,127.9L69.6,127.9c-5.5,0-10.5-3.1-12.9-8.1l-4.1-8.5c-1.1-2.3,0.6-5.1,3.2-5.1h27.8
		c2.6,0,4.3,2.7,3.2,5.1l-4.1,8.5C80.1,124.8,75.1,127.9,69.6,127.9z"/>
	<g>
		<circle class="st28" cx="56.5" cy="43.7" r="4"/>
		<circle class="st28" cx="81.9" cy="43.7" r="4"/>
		<path class="st29" d="M86.8,36.7h-9.7c-0.7,0-1.3-0.6-1.3-1.3v-0.5c0-0.7,0.6-1.3,1.3-1.3h9.7c0.7,0,1.3,0.6,1.3,1.3v0.5
			C88.1,36.1,87.5,36.7,86.8,36.7z"/>
		<path class="st29" d="M61.4,36.7h-9.7c-0.7,0-1.3-0.6-1.3-1.3v-0.5c0-0.7,0.6-1.3,1.3-1.3h9.7c0.7,0,1.3,0.6,1.3,1.3v0.5
			C62.7,36.1,62.1,36.7,61.4,36.7z"/>
	</g>
	<linearGradient id="SVGID_23_" gradientUnits="userSpaceOnUse" x1="69.5215" y1="107.8036" x2="69.4189" y2="86.6696">
		<stop  offset="0.1836" style="stop-color:#F6D9BB"/>
		<stop  offset="0.6741" style="stop-color:#E9AB8F"/>
	</linearGradient>
	<path class="st30" d="M79.6,97.1H58.7c-0.3,0-0.5,0-0.8,0V116h23.2V97.1C80.6,97.1,80.1,97.1,79.6,97.1z"/>
</g>
</svg>
