<?xml version="1.0" encoding="utf-8"?>
<!-- Generator: Adobe Illustrator 22.0.1, SVG Export Plug-In . SVG Version: 6.00 Build 0)  -->
<svg version="1.1" id="Isolation_Mode" xmlns="http://www.w3.org/2000/svg" xmlns:xlink="http://www.w3.org/1999/xlink" x="0px"
	 y="0px" viewBox="0 0 121 203.8" style="enable-background:new 0 0 121 203.8;" xml:space="preserve">
<style type="text/css">
	.st0{fill:#0C1422;}
	.st1{fill:url(#SVGID_1_);}
	.st2{fill:url(#SVGID_2_);}
	.st3{fill:url(#SVGID_3_);}
	.st4{fill:#F8D9AA;}
	.st5{fill:#F68B42;}
	.st6{fill:#FFFFFF;}
	.st7{fill:#2A2D33;}
	.st8{fill:#D73150;}
	.st9{fill:#100D0F;}
	.st10{fill:url(#SVGID_4_);}
	.st11{fill:url(#SVGID_5_);}
	.st12{fill:url(#SVGID_6_);}
	.st13{fill:url(#SVGID_7_);}
	.st14{fill:url(#SVGID_8_);}
	.st15{fill:url(#SVGID_9_);}
	.st16{fill:url(#SVGID_10_);}
	.st17{fill:url(#SVGID_11_);}
	.st18{fill:url(#SVGID_12_);}
	.st19{fill:url(#SVGID_13_);}
	.st20{fill:url(#SVGID_14_);}
	.st21{fill:url(#SVGID_15_);}
	.st22{fill:#32313F;}
	.st23{fill:url(#SVGID_16_);}
</style>
<g>
	<path class="st0" d="M86.2,152.4l-32.1-23.1c-12.2-8.8-25-16.9-38.3-24C9.5,101.9,5.3,95.1,5.7,87.5l2.3-49
		C8.9,19.2,25.2,4.2,44.5,5.1l29.7,1.4c16.9,0.8,29.9,15.1,29.1,31.9l-6,103.8C97,148.1,92.1,152.7,86.2,152.4z"/>
	<linearGradient id="SVGID_1_" gradientUnits="userSpaceOnUse" x1="7.874" y1="156.7993" x2="111.8169" y2="156.7993">
		<stop  offset="0" style="stop-color:#F68B44"/>
		<stop  offset="1" style="stop-color:#F37560"/>
	</linearGradient>
	<path class="st1" d="M99.5,119l12.3,27.1l-16.6,7.5v50.1H18.1v-57.4l-10.2-3.1l6.8-22.4c2-6.6,8.1-11.2,15.1-11.2h55.4
		C91.3,109.8,96.9,113.4,99.5,119z"/>
	
		<linearGradient id="SVGID_2_" gradientUnits="userSpaceOnUse" x1="44.2423" y1="28.4824" x2="55.5252" y2="-8.6417" gradientTransform="matrix(0.9989 4.643082e-02 -4.643082e-02 0.9989 12.1949 30.8279)">
		<stop  offset="0.1836" style="stop-color:#F8D9AA"/>
		<stop  offset="0.6741" style="stop-color:#DBB9A0"/>
	</linearGradient>
	<path class="st2" d="M85.4,57.6l-1.6-0.4l0-11.6C83.7,32,72.6,21,59.1,21.1l-9.2,0c-13.6,0.1-24.6,11.1-24.5,24.7l0,11.5l-1.6,0.4
		c-3.4,0.9-5.3,4.4-4.4,7.7l0.2,0.6c0.7,2.6,3.3,4.3,5.9,4l0,9.2c0.1,13.6,11.1,24.6,24.7,24.5l9.2,0C73,103.8,84,92.7,83.9,79.1
		l0-9.2c2.6,0.3,5.1-1.4,5.8-4l0.2-0.6C90.7,61.9,88.7,58.5,85.4,57.6z"/>
	<linearGradient id="SVGID_3_" gradientUnits="userSpaceOnUse" x1="55.3518" y1="93.3815" x2="55.3518" y2="125.1461">
		<stop  offset="0" style="stop-color:#F68B44"/>
		<stop  offset="1" style="stop-color:#F37560"/>
	</linearGradient>
	<path class="st3" d="M60.8,132.2H49.9c-8.7,0-15.8-7.1-15.8-15.8v0c0-3.7,3-6.7,6.7-6.7h29.1c3.7,0,6.7,3,6.7,6.7v0
		C76.6,125.1,69.5,132.2,60.8,132.2z"/>
	<path class="st4" d="M67.7,109.8H67l2.5-24.3L44.8,83L42,109.9c-2.7,0.5-4.7,2.8-4.7,5.6v0c0,7.4,6,13.4,13.4,13.4H60
		c7.4,0,13.4-6,13.4-13.4v0C73.4,112.3,70.8,109.8,67.7,109.8z"/>
	<path d="M47.2,51.1l-12.4,3.4c-1,0.3-2-0.3-2.3-1.3v0c-0.3-1,0.3-2,1.3-2.3l12.4-3.4c1-0.3,2,0.3,2.3,1.3v0
		C48.8,49.8,48.2,50.8,47.2,51.1z"/>
	<path d="M74.1,55.3L61.7,50c-0.8-0.3-1.1-1.2-0.8-2v0c0.3-0.8,1.2-1.1,2-0.8l12.4,5.4c0.8,0.3,1.1,1.2,0.8,2l0,0
		C75.8,55.3,74.9,55.7,74.1,55.3z"/>
	<circle class="st0" cx="42.2" cy="60.2" r="3.8"/>
	<circle class="st0" cx="68.3" cy="60" r="3.8"/>
	<path class="st5" d="M55.1,76.6L55.1,76.6c-2.5,0-4.4-1.2-4.1-2.6l1.5-7.7l5.1,0l1.6,7.7C59.5,75.3,57.6,76.6,55.1,76.6z"/>
	<path class="st6" d="M56.1,98.6l-0.4,0c-6.1,0-11-4.9-11.1-11v0c0-0.8,0.7-1.5,1.5-1.5l19.4-0.1c0.8,0,1.5,0.7,1.5,1.5v0
		C67.1,93.7,62.2,98.6,56.1,98.6z"/>
	<path class="st7" d="M44.9,90.2c1.2,4.8,5.5,8.4,10.7,8.4l0.4,0c5.2,0,9.5-3.7,10.7-8.5L44.9,90.2z"/>
	<path class="st8" d="M55.9,94.2c-3.3,0-6.2-0.7-8,1.3c2,2,4.7,3.2,7.8,3.2l0.4,0c3,0,5.8-1.3,7.7-3.2
		C62.1,93.5,59.2,94.2,55.9,94.2z"/>
	<path class="st9" d="M101.3,28.2C99.4,12.7,87.2-0.1,71.3,0L42.8,0.1c0,0-0.1,0-0.1,0c-5.7,0-9.8,5.5-8.3,11
		c3.3,12.1,12.8,22.1,25.7,25.6l5.8,1.5C79.6,41.8,92.5,38,101.3,28.2z"/>
	<path class="st4" d="M7.9,143.4l-7.5,24.2c-1.5,4.9,1.9,9.9,7,10.2l0,0c6.7-2,12.2-7.1,14.6-13.7l5.5-14.8L7.9,143.4z"/>
	<g>
		<path class="st4" d="M120,164.1l-12.6-27.8l-18.8,8.5l1.9,4.1l-20.9-12l-10.3,17.9l37.1,21.4c5.5,3.2,12.2,3.5,18,0.9l1-0.4
			C120,174.4,122.1,168.8,120,164.1z"/>
		<linearGradient id="SVGID_4_" gradientUnits="userSpaceOnUse" x1="94.6494" y1="165.1997" x2="122.789" y2="148.0798">
			<stop  offset="0.1836" style="stop-color:#F8D9AA"/>
			<stop  offset="0.6741" style="stop-color:#DBB9A0"/>
		</linearGradient>
		<path class="st10" d="M115.8,176.3L115.8,176.3c-5.9,2.7-12.9,0.1-15.6-5.9l-11.6-25.6l18.8-8.5l12.9,28.3
			C122.2,169.1,120.3,174.3,115.8,176.3z"/>
		<g>
			<g>
				
					<linearGradient id="SVGID_5_" gradientUnits="userSpaceOnUse" x1="-22.6887" y1="104.1955" x2="-23.7608" y2="93.7811" gradientTransform="matrix(0.3641 -5.918961e-02 0.1605 0.987 55.8373 40.0041)">
					<stop  offset="0.1836" style="stop-color:#F8D9AA"/>
					<stop  offset="0.6741" style="stop-color:#D9AA8E"/>
				</linearGradient>
				<path class="st11" d="M70.5,142.4l-10.9,1.8c-1.1,0.2-2.2-0.6-2.4-1.7L57,141c-0.2-1.1,0.6-2.2,1.7-2.4l10.9-1.8L70.5,142.4z"/>
				
					<linearGradient id="SVGID_6_" gradientUnits="userSpaceOnUse" x1="-229.5868" y1="109.2475" x2="-230.668" y2="98.7442" gradientTransform="matrix(0.4604 -7.485983e-02 0.1605 0.987 151.5959 24.4354)">
					<stop  offset="0.1836" style="stop-color:#F8D9AA"/>
					<stop  offset="0.6741" style="stop-color:#D9AA8E"/>
				</linearGradient>
				<path class="st12" d="M71.2,147.4L57,149.7c-1.2,0.2-2.3-0.6-2.5-1.8l-0.2-1.3c-0.2-1.2,0.6-2.3,1.8-2.5l14.2-2.3L71.2,147.4z"
					/>
				
					<linearGradient id="SVGID_7_" gradientUnits="userSpaceOnUse" x1="-229.6127" y1="113.9391" x2="-230.6939" y2="103.4359" gradientTransform="matrix(0.4604 -7.485983e-02 0.1605 0.987 151.5959 24.4354)">
					<stop  offset="0.1836" style="stop-color:#F8D9AA"/>
					<stop  offset="0.6741" style="stop-color:#D9AA8E"/>
				</linearGradient>
				<path class="st13" d="M72,152l-14.2,2.3c-1.2,0.2-2.3-0.6-2.5-1.8l-0.2-1.3c-0.2-1.2,0.6-2.3,1.8-2.5l14.2-2.3L72,152z"/>
				
					<linearGradient id="SVGID_8_" gradientUnits="userSpaceOnUse" x1="-237.9816" y1="118.6558" x2="-239.0625" y2="108.1556" gradientTransform="matrix(0.4533 -7.369111e-02 0.1605 0.987 153.9069 24.0597)">
					<stop  offset="0.1836" style="stop-color:#F8D9AA"/>
					<stop  offset="0.6741" style="stop-color:#D9AA8E"/>
				</linearGradient>
				<path class="st14" d="M72.8,156.7l-14,2.3c-1.2,0.2-2.3-0.6-2.4-1.8l-0.2-1.3c-0.2-1.2,0.6-2.3,1.8-2.4l14-2.3L72.8,156.7z"/>
				
					<linearGradient id="SVGID_9_" gradientUnits="userSpaceOnUse" x1="-421.6851" y1="91.9409" x2="-422.7665" y2="81.4351" gradientTransform="matrix(0.3618 -5.881546e-02 0.1229 0.7562 208.3154 66.5608)">
					<stop  offset="0.1836" style="stop-color:#F8D9AA"/>
					<stop  offset="0.6741" style="stop-color:#D9AA8E"/>
				</linearGradient>
				<path class="st15" d="M73.2,159.3L62,161.1c-0.9,0.1-1.8-0.5-1.9-1.4l-0.1-0.9c-0.1-0.9,0.5-1.8,1.4-1.9l11.2-1.8L73.2,159.3z"
					/>
			</g>
			<g>
				
					<linearGradient id="SVGID_10_" gradientUnits="userSpaceOnUse" x1="65.4599" y1="138.6643" x2="58.0566" y2="140.8359" gradientTransform="matrix(0.4836 8.395551e-02 8.395551e-02 0.9864 26.9658 -4.3842)">
					<stop  offset="0.1836" style="stop-color:#F8D9AA"/>
					<stop  offset="0.6741" style="stop-color:#F8D9AA;stop-opacity:0"/>
				</linearGradient>
				<path class="st16" d="M70.5,142.4l-11.1,1.8c-1,0.2-2-0.5-2.2-1.6l-0.3-1.7c-0.2-1,0.5-2,1.6-2.2l11.1-1.8L70.5,142.4z"/>
				<linearGradient id="SVGID_11_" gradientUnits="userSpaceOnUse" x1="71.8127" y1="144.4527" x2="63.9415" y2="145.7318">
					<stop  offset="0.1836" style="stop-color:#F8D9AA"/>
					<stop  offset="0.6741" style="stop-color:#F8D9AA;stop-opacity:0"/>
				</linearGradient>
				<path class="st17" d="M71.2,147.4L57,149.7c-1.2,0.2-2.3-0.6-2.5-1.8l-0.2-1.3c-0.2-1.2,0.6-2.3,1.8-2.5l14.2-2.3L71.2,147.4z"
					/>
				<linearGradient id="SVGID_12_" gradientUnits="userSpaceOnUse" x1="71.868" y1="148.9396" x2="65.3742" y2="150.2187">
					<stop  offset="0.1836" style="stop-color:#F8D9AA"/>
					<stop  offset="0.6741" style="stop-color:#F8D9AA;stop-opacity:0"/>
				</linearGradient>
				<path class="st18" d="M72,152l-14.2,2.3c-1.2,0.2-2.3-0.6-2.5-1.8l-0.2-1.3c-0.2-1.2,0.6-2.3,1.8-2.5l14.2-2.3L72,152z"/>
				<linearGradient id="SVGID_13_" gradientUnits="userSpaceOnUse" x1="75.4367" y1="153.1425" x2="64.417" y2="155.2087">
					<stop  offset="0.1836" style="stop-color:#F8D9AA"/>
					<stop  offset="0.6741" style="stop-color:#F8D9AA;stop-opacity:0"/>
				</linearGradient>
				<path class="st19" d="M72.8,156.7l-14,2.3c-1.2,0.2-2.3-0.6-2.4-1.8l-0.2-1.3c-0.2-1.2,0.6-2.3,1.8-2.4l14-2.3L72.8,156.7z"/>
				<linearGradient id="SVGID_14_" gradientUnits="userSpaceOnUse" x1="73.7673" y1="156.7182" x2="66.1913" y2="158.2924">
					<stop  offset="0.1836" style="stop-color:#F8D9AA"/>
					<stop  offset="0.6741" style="stop-color:#F8D9AA;stop-opacity:0"/>
				</linearGradient>
				<path class="st20" d="M73.2,159.3L62,161.1c-0.9,0.1-1.8-0.5-1.9-1.4l-0.1-0.9c-0.1-0.9,0.5-1.8,1.4-1.9l11.2-1.8L73.2,159.3z"
					/>
			</g>
		</g>
	</g>
	<linearGradient id="SVGID_15_" gradientUnits="userSpaceOnUse" x1="12.93" y1="162.0328" x2="37.8555" y2="155.0799">
		<stop  offset="0.1836" style="stop-color:#F8D9AA"/>
		<stop  offset="0.6741" style="stop-color:#D9AA8E"/>
	</linearGradient>
	<path class="st21" d="M29.4,152.1l-5.4,1.4l0-4.1c0-1.7-1.4-3-3-3l0,0c-1.7,0-3,1.4-3,3l0,5.6l-6.2,1.6l1.2,4.6l-1.4,0.4l1.2,4.6
		l-0.9,0.2l1.2,4.6l-1.4,0.4l1,3.7l18.4-4.8c1-0.3,1.7-1.3,1.4-2.4c-0.1-0.5-0.4-0.9-0.8-1.1c1-0.6,1.5-1.8,1.2-3l0,0
		c-0.2-0.8-0.8-1.4-1.5-1.8c1-0.6,1.5-1.8,1.2-3l0,0c-0.2-0.8-0.7-1.4-1.4-1.7c1.2-0.5,1.9-1.9,1.5-3.2l0,0
		C32.3,152.6,30.8,151.8,29.4,152.1z"/>
	<g>
		<path class="st22" d="M66.5,26.1l-4.7,1.3c4.8,5,11.2,8.5,18.6,9.7c1.7,0.3,3.5,0.4,5.2,0.4C77.8,35.9,71.2,31.8,66.5,26.1z"/>
		<path class="st22" d="M63,20.9c-3.4-6.1-4.9-13.4-3.8-20.8l-6.5,0c-1,8.1,1,15.9,5.1,22.2L63,20.9z"/>
	</g>
	<linearGradient id="SVGID_16_" gradientUnits="userSpaceOnUse" x1="55.3508" y1="115.7393" x2="55.4492" y2="83.9593">
		<stop  offset="0.1836" style="stop-color:#F8D9AA"/>
		<stop  offset="0.6741" style="stop-color:#D9AA8E"/>
	</linearGradient>
	<path class="st23" d="M67.7,109.8H67l0.8-7.4c-2.6,0.9-5.4,1.5-8.3,1.5l-9.2,0c-2.6,0-5.1-0.4-7.5-1.1l-0.7,7.1
		c-2.7,0.5-4.7,2.8-4.7,5.6v0c0,7.4,6,13.4,13.4,13.4H60c7.4,0,13.4-6,13.4-13.4v0C73.4,112.3,70.8,109.8,67.7,109.8z"/>
</g>
</svg>
